<svg width="40" height="40" viewBox="0 0 40 40" fill="none" xmlns="http://www.w3.org/2000/svg">
<path d="M32.1 13H14.77C14.3102 13.0081 13.8659 12.8338 13.5342 12.5152C13.2026 12.1967 13.0105 11.7598 13 11.3V11.3C13 11.069 13.0459 10.8402 13.1353 10.6271C13.2246 10.4141 13.3554 10.2209 13.5202 10.0589C13.685 9.89694 13.8803 9.76941 14.0949 9.68375C14.3095 9.59809 14.539 9.55603 14.77 9.56001H32.1C32.328 9.56001 32.5538 9.60509 32.7644 9.69265C32.9749 9.78022 33.1661 9.90854 33.3268 10.0702C33.4876 10.232 33.6148 10.4238 33.7012 10.6349C33.7875 10.8459 33.8313 11.072 33.83 11.3V11.3C33.8221 11.7536 33.6364 12.186 33.3128 12.504C32.9892 12.8219 32.5537 13.0001 32.1 13Z" fill="white"/>
<path d="M32.1 22.1H14.77C14.5395 22.1054 14.3102 22.0645 14.0957 21.98C13.8811 21.8954 13.6857 21.7689 13.5208 21.6077C13.3559 21.4465 13.2248 21.254 13.1354 21.0414C13.046 20.8289 12.9999 20.6006 13 20.37V20.37C13 20.139 13.0459 19.9102 13.1353 19.6971C13.2246 19.4841 13.3554 19.2909 13.5202 19.1289C13.685 18.967 13.8803 18.8394 14.0949 18.7538C14.3095 18.6681 14.539 18.626 14.77 18.63H32.1C32.328 18.63 32.5538 18.6751 32.7644 18.7627C32.9749 18.8502 33.1661 18.9785 33.3268 19.1403C33.4876 19.302 33.6148 19.4939 33.7012 19.7049C33.7875 19.916 33.8313 20.142 33.83 20.37V20.37C33.8313 20.5976 33.7875 20.8231 33.701 21.0336C33.6145 21.2441 33.4872 21.4354 33.3263 21.5963C33.1653 21.7572 32.9741 21.8846 32.7636 21.971C32.5531 22.0575 32.3276 22.1013 32.1 22.1V22.1Z" fill="white"/>
<path d="M32.1 31.14H14.77C14.539 31.144 14.3095 31.1019 14.0949 31.0162C13.8803 30.9306 13.685 30.803 13.5202 30.6411C13.3554 30.4791 13.2246 30.2859 13.1353 30.0728C13.0459 29.8598 13 29.631 13 29.4C13 28.9385 13.1833 28.4959 13.5096 28.1696C13.8359 27.8433 14.2785 27.66 14.74 27.66H32.1C32.328 27.66 32.5538 27.705 32.7644 27.7926C32.9749 27.8802 33.1661 28.0085 33.3268 28.1702C33.4876 28.3319 33.6148 28.5238 33.7012 28.7349C33.7875 28.9459 33.8313 29.1719 33.83 29.4V29.4C33.8313 29.628 33.7875 29.854 33.7012 30.0651C33.6148 30.2761 33.4876 30.468 33.3268 30.6297C33.1661 30.7914 32.9749 30.9198 32.7644 31.0073C32.5538 31.0949 32.328 31.14 32.1 31.14Z" fill="white"/>
<path d="M11 11C11 11.3956 10.8827 11.7822 10.6629 12.1111C10.4432 12.44 10.1308 12.6964 9.76537 12.8478C9.39992 12.9991 8.99778 13.0387 8.60982 12.9616C8.22186 12.8844 7.86549 12.6939 7.58579 12.4142C7.30608 12.1345 7.1156 11.7781 7.03843 11.3902C6.96126 11.0022 7.00087 10.6001 7.15224 10.2346C7.30362 9.86918 7.55996 9.55682 7.88886 9.33706C8.21776 9.1173 8.60444 9 9 9C9.53043 9 10.0391 9.21071 10.4142 9.58579C10.7893 9.96086 11 10.4696 11 11Z" fill="white"/>
<path d="M11 20.65C11 21.0456 10.8827 21.4323 10.6629 21.7612C10.4432 22.0901 10.1308 22.3464 9.76537 22.4978C9.39992 22.6492 8.99778 22.6888 8.60982 22.6116C8.22186 22.5344 7.86549 22.3439 7.58579 22.0642C7.30608 21.7845 7.1156 21.4282 7.03843 21.0402C6.96126 20.6522 7.00087 20.2501 7.15224 19.8847C7.30362 19.5192 7.55996 19.2068 7.88886 18.9871C8.21776 18.7673 8.60444 18.65 9 18.65C9.53043 18.65 10.0391 18.8607 10.4142 19.2358C10.7893 19.6109 11 20.1196 11 20.65Z" fill="white"/>
<path d="M11 29.4C11 29.7956 10.8827 30.1823 10.6629 30.5112C10.4432 30.8401 10.1308 31.0964 9.76537 31.2478C9.39992 31.3992 8.99778 31.4388 8.60982 31.3616C8.22186 31.2844 7.86549 31.0939 7.58579 30.8142C7.30608 30.5345 7.1156 30.1782 7.03843 29.7902C6.96126 29.4022 7.00087 29.0001 7.15224 28.6347C7.30362 28.2692 7.55996 27.9568 7.88886 27.7371C8.21776 27.5173 8.60444 27.4 9 27.4C9.53043 27.4 10.0391 27.6107 10.4142 27.9858C10.7893 28.3609 11 28.8696 11 29.4Z" fill="white"/>
</svg>
