<svg width="40" height="40" viewBox="0 0 40 40" fill="#000" xmlns="http://www.w3.org/2000/svg">
<path d="M24.0979 31.1309H28.2979V21.4809C28.2979 21.2609 28.2179 20.9809 28.2979 20.8209C28.5536 20.5117 28.831 20.2209 29.1279 19.9509C29.3979 20.2509 29.8979 20.5409 29.9079 20.8409C29.9579 24.5509 29.9079 28.2609 29.9079 31.9809C29.9149 32.1005 29.8954 32.2202 29.8506 32.3313C29.8058 32.4425 29.7369 32.5423 29.6489 32.6236C29.5609 32.7049 29.456 32.7656 29.3417 32.8015C29.2274 32.8374 29.1065 32.8474 28.9879 32.8309C27.1079 32.8309 25.2179 32.8309 23.3379 32.8309C22.6479 32.8309 22.3379 32.4309 22.3379 31.7609C22.3379 30.0609 22.3379 28.3709 22.3379 26.6809C22.3358 26.109 22.1528 25.5523 21.8151 25.0907C21.4774 24.6291 21.0023 24.2861 20.4579 24.1109C19.9264 23.9272 19.3488 23.9257 18.8164 24.1068C18.284 24.2879 17.8271 24.6412 17.5179 25.1109C17.1781 25.6741 16.9855 26.3138 16.9579 26.9709C16.8779 28.5209 16.9579 30.0709 16.9579 31.6209C16.9579 32.6209 16.7379 32.8809 15.6779 32.8809C14.0179 32.8809 12.3479 32.8809 10.6779 32.8809C9.67787 32.8809 9.43787 32.6309 9.43787 31.6609C9.43787 28.1709 9.43787 24.6609 9.43787 21.1809C9.43787 20.5709 9.56787 20.0109 10.2879 20.0109C11.0079 20.0109 11.1079 20.5909 11.1079 21.2009C11.1079 24.2009 11.1079 27.2009 11.1079 30.2009V31.2009H15.2979V27.0109C15.2679 25.9244 15.622 24.8622 16.2979 24.0109C16.8636 23.3114 17.6318 22.8041 18.4973 22.5584C19.3627 22.3127 20.2829 22.3408 21.1318 22.6387C21.9807 22.9366 22.7166 23.4898 23.2387 24.2225C23.7607 24.9551 24.0434 25.8313 24.0479 26.7309C24.1279 28.1409 24.0979 29.6009 24.0979 31.1309Z" fill="white"/>
<path d="M19.7479 9.85095L12.7479 15.471L6.74788 20.291C6.52788 20.461 6.29788 20.721 6.06788 20.741C5.83788 20.761 5.22788 20.691 5.06788 20.461C4.90788 20.231 5.06788 19.781 5.16788 19.461C5.16788 19.321 5.39788 19.231 5.52788 19.131C9.90788 15.551 14.3679 12.011 18.8179 8.42095C18.9361 8.28854 19.0809 8.18259 19.2429 8.11004C19.4049 8.0375 19.5804 8 19.7579 8C19.9354 8 20.1109 8.0375 20.2729 8.11004C20.4348 8.18259 20.5797 8.28854 20.6979 8.42095C25.0579 11.931 29.4379 15.421 33.8179 18.901L34.1379 19.161C34.6479 19.531 34.9579 20.001 34.4879 20.561C34.0179 21.121 33.5579 20.821 33.1079 20.461L20.6279 10.461L19.7479 9.85095Z" fill="white"/>
</svg>
