<svg width="40" height="40" viewBox="0 0 40 40" fill="none" xmlns="http://www.w3.org/2000/svg">
<path d="M6 19.7421C6.11687 19.3304 6.26738 18.9291 6.45 18.5421C6.72566 18.0444 7.13714 17.6354 7.63645 17.3627C8.13576 17.09 8.7023 16.9649 9.27 17.0021C9.88894 17.0038 10.4922 17.1969 10.9971 17.555C11.5019 17.9131 11.8837 18.4185 12.09 19.0021C12.17 19.2021 12.25 19.2621 12.46 19.2521H15.18V20.9321H12.41C12.26 20.9321 12.17 20.9321 12.12 21.1121C11.9111 21.8002 11.4723 22.3957 10.8771 22.7991C10.2818 23.2026 9.5661 23.3895 8.84957 23.3286C8.13305 23.2677 7.45913 22.9628 6.94047 22.4647C6.4218 21.9666 6.08981 21.3055 6 20.5921L6 20.5221V19.7421Z" fill="white"/>
<path d="M19.81 34.332C19.3623 34.2012 18.9272 34.0305 18.51 33.822C18.0308 33.5432 17.6409 33.1336 17.3859 32.6413C17.1309 32.149 17.0213 31.5943 17.07 31.042C17.0779 30.4282 17.2739 29.8316 17.6315 29.3327C17.9891 28.8338 18.4912 28.4566 19.07 28.252C19.1592 28.2306 19.2372 28.1767 19.289 28.101C19.3407 28.0252 19.3624 27.9329 19.35 27.842C19.35 26.942 19.35 26.052 19.35 25.152H21V26.152C21 26.732 21 27.312 21 27.902C20.9882 27.9761 21.0056 28.0519 21.0485 28.1134C21.0914 28.1749 21.1564 28.2175 21.23 28.232C21.7437 28.414 22.1997 28.7294 22.5512 29.1459C22.9027 29.5625 23.137 30.065 23.23 30.602C23.3066 31.0086 23.3021 31.4262 23.2168 31.831C23.1314 32.2358 22.967 32.6198 22.7328 32.9608C22.4986 33.3019 22.1994 33.5933 21.8522 33.8183C21.5051 34.0433 21.1169 34.1975 20.71 34.272L20.53 34.332H19.81Z" fill="white"/>
<path d="M17.17 15.932L16 17.082L16.07 17.182L15.89 17.022L14.09 15.222C14.0478 15.1638 13.9847 15.124 13.914 15.111C13.8432 15.0979 13.7702 15.1126 13.71 15.152C13.1718 15.4272 12.563 15.5333 11.9635 15.4566C11.3639 15.3799 10.8015 15.1238 10.35 14.722C9.87903 14.3548 9.53109 13.8528 9.35245 13.283C9.17381 12.7131 9.17295 12.1024 9.34998 11.532C9.48345 10.9451 9.79038 10.4119 10.2309 10.0017C10.6714 9.59156 11.2251 9.32337 11.82 9.23202C12.3024 9.14179 12.7992 9.16663 13.2702 9.30452C13.7412 9.4424 14.173 9.68944 14.5306 10.0256C14.8882 10.3617 15.1614 10.7774 15.3281 11.239C15.4948 11.7006 15.5503 12.195 15.49 12.682C15.4272 13.0243 15.3301 13.3593 15.2 13.682C15.1718 13.7417 15.1634 13.8087 15.176 13.8735C15.1886 13.9382 15.2215 13.9973 15.27 14.042C15.93 14.682 16.58 15.342 17.17 15.932Z" fill="white"/>
<path d="M24.4 17.1021L23.23 15.9321C23.79 15.3621 24.42 14.7221 25.07 14.0921C25.14 14.0384 25.1878 13.9608 25.2044 13.8742C25.221 13.7875 25.2052 13.6978 25.16 13.6221C24.8813 13.0574 24.7874 12.4194 24.8915 11.7984C24.9956 11.1775 25.2924 10.605 25.74 10.1621C26.1344 9.70854 26.6583 9.3868 27.2412 9.24018C27.8241 9.09357 28.4379 9.12912 29 9.34206C29.5867 9.51361 30.1069 9.86028 30.4912 10.3357C30.8754 10.811 31.1053 11.3924 31.15 12.0021C31.2274 12.5683 31.1415 13.1449 30.9023 13.664C30.6632 14.183 30.2807 14.623 29.8 14.9321C29.3552 15.2601 28.8286 15.4588 28.278 15.5065C27.7275 15.5541 27.1745 15.4488 26.68 15.2021C26.6163 15.1597 26.5392 15.1424 26.4635 15.1535C26.3878 15.1646 26.3189 15.2032 26.27 15.2621C25.64 15.9321 25 16.5221 24.4 17.1021Z" fill="white"/>
<path d="M16 23.172L17.16 24.332C16.66 24.842 16.09 25.432 15.49 25.992C15.3569 26.0836 15.2633 26.2221 15.2281 26.3797C15.1929 26.5374 15.2185 26.7025 15.3 26.842C15.5308 27.4024 15.5865 28.0195 15.4598 28.6121C15.3331 29.2047 15.0298 29.7451 14.59 30.162C14.1856 30.598 13.6607 30.904 13.0821 31.0411C12.5034 31.1782 11.897 31.1402 11.34 30.932C10.7727 30.7489 10.2728 30.4009 9.90414 29.9325C9.53546 29.4641 9.31469 28.8964 9.26999 28.302C9.21779 27.858 9.26222 27.408 9.40025 26.9829C9.53827 26.5577 9.76662 26.1674 10.0696 25.8387C10.3726 25.5101 10.7431 25.2508 11.1557 25.0788C11.5683 24.9067 12.0133 24.826 12.46 24.842C12.8816 24.8802 13.2957 24.9778 13.69 25.132C13.88 25.192 13.99 25.212 14.14 25.052C14.71 24.462 15.3 23.892 15.88 23.302L16.07 23.122L16 23.172Z" fill="white"/>
<path d="M23.22 24.342L24.38 23.182L24.31 23.082L24.49 23.242C25.09 23.842 25.69 24.442 26.28 25.052C26.3254 25.1094 26.3909 25.1475 26.4632 25.1586C26.5355 25.1697 26.6094 25.1531 26.67 25.112C27.197 24.8586 27.7842 24.7574 28.3657 24.8197C28.9471 24.8821 29.4995 25.1055 29.9608 25.4649C30.4221 25.8244 30.7738 26.3054 30.9764 26.854C31.179 27.4025 31.2244 27.9967 31.1074 28.5697C30.9905 29.1426 30.7159 29.6715 30.3146 30.0968C29.9133 30.5221 29.4011 30.8269 28.8359 30.9768C28.2707 31.1268 27.6749 31.1159 27.1155 30.9454C26.5562 30.775 26.0555 30.4517 25.67 30.012C25.2511 29.5606 24.9813 28.9912 24.8972 28.3811C24.8132 27.7711 24.9189 27.1499 25.2 26.602C25.2395 26.5376 25.2533 26.4605 25.2384 26.3863C25.2236 26.3122 25.1813 26.2463 25.12 26.202C24.44 25.562 23.8 24.932 23.22 24.342Z" fill="white"/>
<path d="M21 15.112H19.37V14.852C19.37 14.022 19.37 13.202 19.37 12.382C19.3817 12.3027 19.3622 12.2219 19.3156 12.1566C19.2689 12.0914 19.1988 12.0467 19.12 12.032C18.49 11.8028 17.9495 11.3786 17.5772 10.8211C17.2049 10.2635 17.0202 9.60178 17.05 8.93203C17.1057 8.10058 17.4894 7.3253 18.1167 6.77676C18.744 6.22822 19.5635 5.95134 20.395 6.00703C21.2264 6.06273 22.0017 6.44643 22.5503 7.07374C23.0988 7.70105 23.3757 8.52058 23.32 9.35203C23.2842 9.95647 23.0664 10.5359 22.6952 11.0143C22.3239 11.4926 21.8166 11.8474 21.24 12.032C21.1713 12.0506 21.1115 12.093 21.0712 12.1516C21.0309 12.2102 21.0128 12.2813 21.02 12.352C21.02 13.172 21.02 14.002 21.02 14.822L21 15.112Z" fill="white"/>
<path d="M25.22 20.932V19.302H28C28.0741 19.3169 28.1512 19.3023 28.2147 19.2612C28.2783 19.2201 28.3232 19.1558 28.34 19.082C28.596 18.3757 29.0974 17.785 29.7529 17.4178C30.4083 17.0506 31.1739 16.9314 31.91 17.082C32.6513 17.2362 33.313 17.6508 33.7752 18.2506C34.2375 18.8504 34.4697 19.5958 34.43 20.352C34.4012 20.7699 34.2889 21.1777 34.0996 21.5514C33.9104 21.925 33.6481 22.2569 33.3282 22.5273C33.0084 22.7978 32.6375 23.0012 32.2376 23.1257C31.8376 23.2502 31.4168 23.2931 31 23.252C30.3997 23.2158 29.8242 23 29.3481 22.6327C28.872 22.2653 28.5173 21.7634 28.33 21.192C28.26 21.022 28.19 20.952 28 20.962H25.22V20.932Z" fill="white"/>
<path d="M23.58 20.122C23.582 20.7901 23.3859 21.4438 23.0166 22.0005C22.6473 22.5572 22.1213 22.992 21.505 23.2499C20.8887 23.5078 20.2098 23.5773 19.5541 23.4497C18.8983 23.322 18.2951 23.0029 17.8206 22.5326C17.3461 22.0623 17.0216 21.4619 16.8882 20.8073C16.7547 20.1527 16.8182 19.4732 17.0706 18.8547C17.3231 18.2361 17.7532 17.7063 18.3066 17.3321C18.86 16.9578 19.5119 16.756 20.18 16.752C21.0774 16.7494 21.9392 17.1026 22.5765 17.7343C23.2138 18.366 23.5747 19.2247 23.58 20.122V20.122Z" fill="white"/>
</svg>
