<svg width="40" height="40" viewBox="0 0 40 40" fill="none" xmlns="http://www.w3.org/2000/svg">
<path d="M20.72 5C20.9726 5.09324 21.1856 5.27003 21.3239 5.50104C21.4621 5.73204 21.5172 6.00337 21.48 6.27C21.48 7.27 21.48 8.27 21.48 9.27C21.4967 9.5305 21.4108 9.7872 21.2408 9.98526C21.0708 10.1833 20.83 10.307 20.57 10.33C20.3149 10.3305 20.0692 10.2334 19.8833 10.0586C19.6974 9.88388 19.5853 9.64468 19.57 9.39C19.57 8.24 19.57 7.09 19.57 5.95C19.5702 5.73912 19.637 5.53369 19.7609 5.36307C19.8848 5.19245 20.0595 5.06537 20.26 5H20.72Z" fill="white"/>
<path d="M20.47 30.44H18.07C17.3 30.44 16.87 30.06 16.94 29.3C16.9755 28.6176 16.8684 27.9353 16.6257 27.2965C16.3829 26.6578 16.0098 26.0766 15.53 25.59C14.9065 24.8832 14.3319 24.1348 13.81 23.35C13.0647 22.0667 12.7077 20.5948 12.7823 19.1127C12.8568 17.6306 13.3597 16.202 14.23 15C15.3447 13.4432 17.0114 12.3703 18.89 12C20.0636 11.7318 21.2846 11.7508 22.4494 12.0555C23.6141 12.3602 24.688 12.9415 25.58 13.75C27.0713 15.0092 28.0057 16.8059 28.18 18.75C28.2909 19.7677 28.1948 20.7972 27.8975 21.7768C27.6002 22.7564 27.1078 23.6657 26.45 24.45C25.85 25.19 25.24 25.93 24.68 26.7C24.2093 27.3076 23.9685 28.062 24 28.83C24 29 24 29.18 24 29.35C24.0139 29.4966 23.9953 29.6445 23.9454 29.783C23.8955 29.9216 23.8157 30.0474 23.7116 30.1516C23.6074 30.2557 23.4816 30.3356 23.343 30.3854C23.2045 30.4353 23.0566 30.4539 22.91 30.44H20.47ZM22.03 28.44C22.1422 27.0565 22.7082 25.7488 23.64 24.72C24.04 24.19 24.48 23.72 24.9 23.18C25.7244 22.2211 26.2033 21.0133 26.26 19.75C26.3133 18.8299 26.1453 17.9104 25.7703 17.0685C25.3952 16.2266 24.824 15.4868 24.1043 14.9111C23.3847 14.3353 22.5375 13.9403 21.6339 13.7591C20.7302 13.5779 19.7963 13.6159 18.9103 13.8697C18.0243 14.1236 17.212 14.586 16.5414 15.2182C15.8708 15.8505 15.3614 16.6342 15.0559 17.5037C14.7504 18.3733 14.6576 19.3033 14.7853 20.2161C14.913 21.1288 15.2575 21.9977 15.79 22.75C16.39 23.57 17.08 24.31 17.68 25.12C18.3984 25.9907 18.8127 27.0722 18.86 28.2C18.8707 28.2648 18.8874 28.3284 18.91 28.39L22.03 28.44Z" fill="white"/>
<path d="M20.46 32.68C19.63 32.68 18.81 32.68 17.98 32.68C17.8168 32.6887 17.654 32.6572 17.5058 32.5884C17.3576 32.5196 17.2285 32.4155 17.1298 32.2853C17.0312 32.155 16.9659 32.0026 16.9398 31.8413C16.9137 31.68 16.9275 31.5147 16.98 31.36C17.0415 31.1669 17.1649 30.9995 17.3313 30.8838C17.4977 30.768 17.6976 30.7105 17.9 30.72H23C23.2652 30.72 23.5196 30.8254 23.7071 31.0129C23.8946 31.2004 24 31.4548 24 31.72C24 31.9852 23.8946 32.2396 23.7071 32.4271C23.5196 32.6147 23.2652 32.72 23 32.72C22.15 32.69 21.3 32.68 20.46 32.68Z" fill="white"/>
<path d="M8.65 20.48H7C6.73478 20.48 6.48043 20.3746 6.29289 20.1871C6.10536 19.9996 6 19.7452 6 19.48C6 19.2148 6.10536 18.9604 6.29289 18.7729C6.48043 18.5853 6.73478 18.48 7 18.48C8.1 18.48 9.2 18.48 10.3 18.48C10.5652 18.48 10.8196 18.5853 11.0071 18.7729C11.1946 18.9604 11.3 19.2148 11.3 19.48C11.3 19.7452 11.1946 19.9996 11.0071 20.1871C10.8196 20.3746 10.5652 20.48 10.3 20.48H8.65Z" fill="white"/>
<path d="M32.32 20.48H30.71C30.5737 20.4882 30.4372 20.4684 30.3089 20.4218C30.1806 20.3752 30.0631 20.3029 29.9638 20.2092C29.8645 20.1155 29.7854 20.0025 29.7315 19.877C29.6775 19.7516 29.6498 19.6165 29.65 19.48C29.65 19.2148 29.7554 18.9604 29.9429 18.7729C30.1305 18.5853 30.3848 18.48 30.65 18.48C31.7367 18.48 32.8267 18.48 33.92 18.48C34.1852 18.48 34.4396 18.5853 34.6271 18.7729C34.8147 18.9604 34.92 19.2148 34.92 19.48C34.9203 19.6165 34.8926 19.7516 34.8386 19.877C34.7846 20.0025 34.7056 20.1155 34.6062 20.2092C34.5069 20.3029 34.3895 20.3752 34.2612 20.4218C34.1328 20.4684 33.9963 20.4882 33.86 20.48H32.32Z" fill="white"/>
<path d="M29.9 9.00001C30.1051 8.98043 30.3112 9.02468 30.4902 9.12671C30.6692 9.22873 30.8123 9.38356 30.9 9.57001C30.9859 9.74161 31.0167 9.9356 30.9881 10.1254C30.9594 10.3152 30.8728 10.4914 30.74 10.63C30.36 11.03 29.96 11.42 29.57 11.81L28.4 13C28.3119 13.1101 28.2016 13.2002 28.0763 13.2647C27.9509 13.3291 27.8134 13.3663 27.6726 13.3738C27.5319 13.3814 27.3912 13.3591 27.2597 13.3084C27.1281 13.2578 27.0088 13.1799 26.9095 13.0799C26.8102 12.9798 26.7332 12.86 26.6835 12.7281C26.6337 12.5962 26.6124 12.4553 26.621 12.3147C26.6295 12.174 26.6677 12.0367 26.733 11.9118C26.7983 11.7869 26.8893 11.6773 27 11.59C27.77 10.81 28.53 10.04 29.32 9.29001C29.4957 9.16149 29.6917 9.06345 29.9 9.00001V9.00001Z" fill="white"/>
<path d="M14.31 12.19C14.3304 12.394 14.2877 12.5993 14.1875 12.7782C14.0873 12.9571 13.9346 13.1008 13.75 13.19C13.5919 13.2734 13.4128 13.3084 13.235 13.2906C13.0571 13.2728 12.8885 13.203 12.75 13.09C12.5748 12.9499 12.4109 12.7961 12.26 12.63L10.26 10.63C10.1314 10.5484 10.0232 10.4385 9.94353 10.3086C9.86388 10.1788 9.81494 10.0325 9.80044 9.88089C9.78594 9.72927 9.80627 9.57635 9.85987 9.43378C9.91347 9.29121 9.99893 9.16277 10.1097 9.05826C10.2205 8.95375 10.3537 8.87593 10.4992 8.83074C10.6446 8.78555 10.7985 8.77418 10.949 8.7975C11.0995 8.82082 11.2427 8.87821 11.3677 8.9653C11.4926 9.05238 11.596 9.16686 11.67 9.3C12.44 10.06 13.21 10.81 14 11.59C14.1269 11.777 14.2309 11.9784 14.31 12.19V12.19Z" fill="white"/>
<path d="M14.31 26.78C14.2426 26.9773 14.1447 27.1629 14.02 27.33C13.23 28.15 12.42 28.96 11.61 29.75C11.4189 29.868 11.1937 29.9182 10.9706 29.8925C10.7475 29.8669 10.5395 29.7669 10.3802 29.6087C10.2208 29.4505 10.1194 29.2433 10.0921 29.0204C10.0649 28.7975 10.1134 28.5719 10.23 28.38C11.03 27.56 11.83 26.76 12.65 25.96C12.7845 25.8177 12.9617 25.7231 13.1548 25.6906C13.3479 25.6581 13.5463 25.6895 13.72 25.78C13.9102 25.8646 14.0692 26.0064 14.175 26.1856C14.2807 26.3649 14.3279 26.5727 14.31 26.78V26.78Z" fill="white"/>
<path d="M31.07 29C31.0555 29.1966 30.9885 29.3858 30.8759 29.5476C30.7633 29.7095 30.6093 29.8381 30.43 29.92C30.2491 29.9944 30.0505 30.0142 29.8585 29.9769C29.6665 29.9396 29.4897 29.8468 29.35 29.71L27.35 27.71C27.2 27.56 27.05 27.42 26.92 27.27C26.7838 27.0819 26.7173 26.8524 26.7319 26.6206C26.7465 26.3889 26.8413 26.1695 27 26C27.0824 25.9089 27.182 25.835 27.2932 25.7826C27.4043 25.7302 27.5247 25.7004 27.6475 25.6948C27.7702 25.6892 27.8928 25.708 28.0083 25.7501C28.1237 25.7922 28.2296 25.8567 28.32 25.94C29.17 26.76 30 27.59 30.81 28.44C30.9251 28.6121 31.0128 28.801 31.07 29Z" fill="white"/>
<path d="M20.47 34.91C20.06 34.91 19.64 34.91 19.22 34.91C18.9548 34.91 18.7004 34.8046 18.5129 34.6171C18.3253 34.4296 18.22 34.1752 18.22 33.91C18.2195 33.6548 18.3166 33.4092 18.4913 33.2233C18.6661 33.0374 18.9053 32.9253 19.16 32.91C20.04 32.91 20.93 32.91 21.81 32.91C21.9378 32.9095 22.0644 32.9357 22.1815 32.9868C22.2987 33.038 22.4039 33.113 22.4905 33.2071C22.5771 33.3012 22.6431 33.4123 22.6843 33.5333C22.7255 33.6543 22.7411 33.7826 22.73 33.91C22.7147 34.1647 22.6026 34.4039 22.4167 34.5786C22.2308 34.7534 21.9851 34.8504 21.73 34.85C21.31 34.92 20.89 34.91 20.47 34.91Z" fill="white"/>
</svg>
