<svg width="40" height="40" viewBox="0 0 40 40" fill="none" xmlns="http://www.w3.org/2000/svg">
<path d="M20.9 33.8471H18.9C18.8501 33.8426 18.7999 33.8426 18.75 33.8471C16.8479 33.7176 14.9975 33.1714 13.33 32.2471C11.3967 31.2168 9.73683 29.7405 8.48815 27.9405C7.23946 26.1405 6.43792 24.0688 6.15 21.8971C6.09 21.5171 6.05 21.1271 6 20.7471V19.1671C6.02151 19.0713 6.0382 18.9745 6.05 18.8771C6.13 18.2871 6.18 17.6871 6.3 17.1071C6.91203 14.0672 8.54157 11.3266 10.92 9.33708C12.438 8.02012 14.2282 7.05485 16.1626 6.5103C18.0971 5.96575 20.1279 5.85538 22.11 6.18708C24.7177 6.56608 27.1541 7.71118 29.11 9.47708C30.5301 10.698 31.6838 12.1981 32.4992 13.8841C33.3147 15.5701 33.7745 17.4058 33.85 19.2771C34.0148 21.9926 33.3448 24.6935 31.93 27.0171C30.9197 28.7652 29.5367 30.2691 27.8791 31.422C26.2216 32.5748 24.3304 33.3482 22.34 33.6871C21.87 33.7271 21.38 33.7771 20.9 33.8471ZM19.9 31.9571C22.2734 31.9571 24.5935 31.2533 26.5668 29.9347C28.5402 28.6161 30.0783 26.742 30.9866 24.5493C31.8948 22.3566 32.1324 19.9438 31.6694 17.616C31.2064 15.2882 30.0635 13.15 28.3853 11.4718C26.7071 9.79357 24.5689 8.65068 22.2411 8.18766C19.9133 7.72464 17.5005 7.96228 15.3078 8.87053C13.1151 9.77878 11.2409 11.3168 9.92236 13.2902C8.60379 15.2636 7.9 17.5837 7.9 19.9571C7.9 23.1397 9.16428 26.1919 11.4147 28.4424C13.6652 30.6928 16.7174 31.9571 19.9 31.9571V31.9571Z" fill="white"/>
<path d="M9.93999 20.0671C9.91367 18.3431 10.3404 16.6423 11.1774 15.1349C12.0145 13.6275 13.2326 12.3662 14.71 11.4771C16.1651 10.5126 17.8598 9.97178 19.6046 9.91527C21.3494 9.85876 23.0756 10.2887 24.59 11.1571C26.2023 11.9699 27.554 13.2191 28.4911 14.7626C29.4281 16.306 29.9128 18.0816 29.89 19.8871C29.9052 20.295 29.7687 20.694 29.5069 21.0071C29.245 21.3202 28.8765 21.5251 28.4724 21.5823C28.0683 21.6395 27.6573 21.5449 27.3189 21.3168C26.9804 21.0886 26.7386 20.7432 26.64 20.3471C26.55 19.9171 26.56 19.4671 26.5 19.0271C26.3299 17.804 25.8221 16.6526 25.0337 15.7022C24.2453 14.7518 23.2075 14.0401 22.0369 13.647C20.8662 13.2539 19.6092 13.1951 18.407 13.4771C17.2047 13.759 16.105 14.3707 15.2312 15.2433C14.3575 16.1159 13.7443 17.2148 13.4607 18.4167C13.1772 19.6185 13.2343 20.8757 13.6258 22.0468C14.0173 23.218 14.7277 24.2567 15.677 25.0464C16.6264 25.8361 17.7771 26.3454 19 26.5171C19.34 26.5671 19.68 26.5671 20 26.6071C20.4272 26.6379 20.8251 26.8356 21.1076 27.1575C21.3902 27.4794 21.5347 27.8995 21.51 28.3271C21.4997 28.5452 21.4466 28.7591 21.3535 28.9566C21.2605 29.1541 21.1294 29.3313 20.9678 29.4781C20.8061 29.6248 20.6171 29.7383 20.4116 29.8119C20.2061 29.8855 19.988 29.9179 19.77 29.9071C17.4667 29.8767 15.2446 29.0521 13.479 27.5727C11.7135 26.0932 10.5128 24.0495 10.08 21.7871C9.99999 21.1771 9.99999 20.5571 9.93999 20.0671Z" fill="white"/>
<path d="M19.93 18.0171C20.395 18.0134 20.8452 18.1803 21.1953 18.4862C21.5455 18.7921 21.7713 19.2158 21.83 19.6771C21.8613 19.9361 21.9693 20.1798 22.14 20.3771C23.6067 22.0771 25.07 23.7838 26.53 25.4971C26.6267 25.5829 26.6981 25.6935 26.7366 25.817C26.775 25.9404 26.779 26.0721 26.7481 26.1976C26.7173 26.3232 26.6527 26.4379 26.5614 26.5295C26.4701 26.621 26.3555 26.6859 26.23 26.7171C26.1003 26.7411 25.9667 26.7326 25.8411 26.6925C25.7155 26.6524 25.6018 26.5818 25.51 26.4871L20.43 22.2271C20.2174 22.0235 19.9429 21.8968 19.65 21.8671C19.172 21.8047 18.7352 21.5639 18.4274 21.193C18.1195 20.8221 17.9632 20.3484 17.99 19.8671C18.0132 19.3683 18.2277 18.8977 18.5891 18.5531C18.9504 18.2085 19.4307 18.0166 19.93 18.0171V18.0171Z" fill="white"/>
</svg>
