<svg width="40" height="40" viewBox="0 0 40 40" fill="none" xmlns="http://www.w3.org/2000/svg">
<path d="M29.5548 28.2535L31.3648 30.0635L33.1448 31.8535C33.2492 31.9324 33.3356 32.0327 33.3982 32.1477C33.4607 32.2627 33.498 32.3898 33.5076 32.5203C33.5171 32.6509 33.4987 32.782 33.4535 32.9049C33.4083 33.0277 33.3374 33.1395 33.2456 33.2328C33.1537 33.3261 33.043 33.3987 32.9209 33.4458C32.7987 33.4929 32.6679 33.5134 32.5372 33.5058C32.4065 33.4983 32.2789 33.463 32.163 33.4022C32.047 33.3415 31.9454 33.2567 31.8648 33.1535L28.4948 29.7935C28.4248 29.7135 28.3748 29.6235 28.3048 29.5335C26.6618 30.9781 24.6892 31.9971 22.5602 32.501C20.4312 33.0049 18.2111 32.9783 16.0948 32.4235C12.8635 31.642 10.0543 29.6523 8.2448 26.8635C6.85915 24.7784 6.08386 22.3476 6.00643 19.8454C5.929 17.3431 6.55251 14.869 7.8066 12.7023C9.06069 10.5357 10.8954 8.76262 13.1037 7.58335C15.312 6.40409 17.806 5.86554 20.3042 6.02848C22.8023 6.19143 25.2052 7.04939 27.2416 8.50553C29.278 9.96167 30.8669 11.958 31.8289 14.2693C32.7909 16.5805 33.0877 19.1146 32.6859 21.5856C32.2841 24.0566 31.1996 26.3661 29.5548 28.2535V28.2535ZM30.9848 19.4235C30.9927 17.1267 30.3186 14.8792 29.0479 12.9659C27.7772 11.0526 25.9672 9.55959 23.8471 8.67607C21.727 7.79254 19.3924 7.55828 17.139 8.00296C14.8856 8.44765 12.815 9.55126 11.1895 11.1739C9.56403 12.7966 8.45684 14.8654 8.00826 17.1179C7.55968 19.3705 7.78991 21.7056 8.66976 23.8272C9.54962 25.9488 11.0395 27.7614 12.9506 29.0354C14.8617 30.3094 17.108 30.9874 19.4048 30.9835C22.4685 30.9703 25.4033 29.7488 27.5716 27.5843C29.7398 25.4198 30.9664 22.4871 30.9848 19.4235V19.4235Z" fill="white"/>
<path d="M22.3248 18.5835C23.091 18.9789 23.7708 19.5228 24.3248 20.1835C25.2437 21.285 25.7556 22.6691 25.7748 24.1035C25.7871 24.2379 25.7697 24.3733 25.7238 24.5002C25.6779 24.6271 25.6046 24.7424 25.5092 24.8378C25.4137 24.9333 25.2985 25.0065 25.1716 25.0524C25.0446 25.0983 24.9092 25.1158 24.7748 25.1035H14.1448C14.0096 25.1195 13.8725 25.1047 13.7439 25.0602C13.6152 25.0156 13.4984 24.9424 13.4021 24.8462C13.3058 24.7499 13.2326 24.633 13.1881 24.5044C13.1435 24.3757 13.1287 24.2387 13.1448 24.1035C13.1522 23.0181 13.4431 21.9534 13.9886 21.015C14.5341 20.0766 15.3153 19.297 16.2548 18.7535L16.5548 18.5835C16.1412 18.1754 15.8172 17.6856 15.6036 17.1453C15.3899 16.605 15.2912 16.0261 15.3138 15.4455C15.3363 14.8649 15.4797 14.2955 15.7347 13.7734C15.9897 13.2513 16.3508 12.7882 16.7948 12.4135C17.6092 11.7777 18.6264 11.4588 19.658 11.5158C20.6895 11.5728 21.6654 12.0019 22.4048 12.7235C23.1698 13.5119 23.591 14.5715 23.576 15.67C23.561 16.7685 23.111 17.8162 22.3248 18.5835V18.5835ZM23.8048 23.2635C23.5873 22.2124 22.9964 21.2757 22.1415 20.6267C21.2867 19.9778 20.2256 19.6604 19.1548 19.7335C17.1548 19.8535 15.1548 21.6235 15.1548 23.2635H23.8048ZM19.4548 13.2635C19.1515 13.2634 18.8513 13.3236 18.5715 13.4406C18.2916 13.5576 18.0379 13.7289 17.8248 13.9448C17.6118 14.1606 17.4437 14.4166 17.3304 14.6979C17.2171 14.9792 17.1608 15.2802 17.1648 15.5835C17.2033 16.166 17.4618 16.712 17.8879 17.111C18.3141 17.5099 18.876 17.7319 19.4598 17.7319C20.0435 17.7319 20.6055 17.5099 21.0316 17.111C21.4578 16.712 21.7163 16.166 21.7548 15.5835C21.7548 15.2819 21.6952 14.9833 21.5795 14.7048C21.4638 14.4263 21.2942 14.1734 21.0805 13.9606C20.8668 13.7479 20.6132 13.5794 20.3342 13.4649C20.0552 13.3504 19.7564 13.2921 19.4548 13.2935V13.2635Z" fill="white"/>
</svg>
