<svg xmlns="http://www.w3.org/2000/svg" viewBox="0 0 216.91 230.2"><defs><style>.cls-1{fill:#e0e0e0;}</style></defs><title>logo_vertical</title><g id="Layer_2" data-name="Layer 2"><g id="Layer_2-2" data-name="Layer 2"><path class="cls-1" d="M130.92,57c-.12-.19-.27-.36-.4-.54a6,6,0,0,0-6.1-2.14,6.11,6.11,0,0,0-4.1,3.33,5.81,5.81,0,0,0-.32,4.4h0a6,6,0,0,0,.89,1.76h0a11.66,11.66,0,1,1-19-.1h0a6.08,6.08,0,0,0,1-2.53,5.63,5.63,0,0,0-2.33-5.57,5.39,5.39,0,0,0-5.72-1.08,6.06,6.06,0,0,0-2,1.16c-.1.09-.17.21-.26.3a5.14,5.14,0,0,0-.69.79h0l0,0a23.71,23.71,0,0,0-4.48,13.45A24,24,0,1,0,130.92,57Z"/><rect class="cls-1" x="99.27" y="52.31" width="24.09" height="12.68" rx="4.36" transform="translate(169.97 -52.66) rotate(90)"/><path class="cls-1" d="M180.61,57.08a72.41,72.41,0,0,0-4-13.22A70.53,70.53,0,0,0,156.08,16a68.73,68.73,0,0,0-32-14.84l-.2,0c-1.5-.26-3-.48-4.54-.65a4.6,4.6,0,0,1-.59-.09,77,77,0,0,0-14.69,0,2.7,2.7,0,0,1-.35.07,38.18,38.18,0,0,0-7.25.84C77.21,6.15,62.3,16.39,52,32.23a68.65,68.65,0,0,0-10.3,26.3c-.23,1.68-1.51,11.57-.65,19.34,0,0,0,0,0,.06.47,3.16.87,6.35,1.63,9.45a70.59,70.59,0,0,0,57.86,53c2.68.2,14.8,1,22.11-.06a70.42,70.42,0,0,0,15.47-4.39l.23-.1a6.16,6.16,0,0,0,3.72-5.63,6,6,0,0,0-1-3.35L140,125.61a6.28,6.28,0,0,0-4.14-1.58,6.17,6.17,0,0,0-2.36.47l-.14,0a58.36,58.36,0,0,1-12.85,3.73c-14.9,2.18-28.94-.64-41.75-9.32A59.14,59.14,0,0,1,57.9,94a56.64,56.64,0,0,1-3.08-38.42,58.71,58.71,0,0,1,49.93-43,55.47,55.47,0,0,1,24.55,2.53c18,6.1,30.22,18.18,36.94,35.7a51.49,51.49,0,0,1,3.44,17.56,58.3,58.3,0,0,1-4.42,24.39c-.79,1.82-1.67,3.6-2.57,5.4h0a6,6,0,0,0,1,7.23l0,0a6.21,6.21,0,0,0,9.44-.85c.22-.39.44-.78.65-1.17a68.81,68.81,0,0,0,7.63-25.11c0-.37.19-.64.2-.88C182.3,64.68,181.13,60.24,180.61,57.08ZM165,95.82l-.15.08Zm1.19-.52.35-.11Z"/><path class="cls-1" d="M168.6,122.66l-16.38-18.15a2.57,2.57,0,0,0-3.63-.18l-.64.58-1.89-2.11a47.35,47.35,0,1,0-74.19-6,45.21,45.21,0,0,0,26.45,19.3c15,4.11,28.76,1.38,41.45-7.6l1.92,2.08-.67.61a2.57,2.57,0,0,0-.19,3.63l16.37,18.15a2.58,2.58,0,0,0,3.64.19l7.57-6.84A2.57,2.57,0,0,0,168.6,122.66Zm-54.56-17a35.09,35.09,0,1,1-2.43-70.07c18.91-.17,34.29,15.78,34.72,34.06C146.8,89.78,130.78,104.63,114,105.62Z"/><path class="cls-1" d="M4.66,200.35V172.11h18.2v2.27H7.33v10.2H21.45v2.28H7.33v13.49Z"/><path class="cls-1" d="M29.57,186.27a19.46,19.46,0,0,1,.84-5.8,14.24,14.24,0,0,1,2.49-4.73,11.91,11.91,0,0,1,4.08-3.2,12.79,12.79,0,0,1,5.61-1.18,13.63,13.63,0,0,1,5.79,1.16,11.65,11.65,0,0,1,4.16,3.18,13.93,13.93,0,0,1,2.51,4.75,19.64,19.64,0,0,1,.84,5.82,19.17,19.17,0,0,1-.84,5.75,14.34,14.34,0,0,1-2.49,4.71,11.75,11.75,0,0,1-4.12,3.19,13.12,13.12,0,0,1-5.73,1.18A13.12,13.12,0,0,1,37,199.92a11.85,11.85,0,0,1-4.12-3.19A13.94,13.94,0,0,1,30.39,192,19.49,19.49,0,0,1,29.57,186.27Zm13.18,12.55a10,10,0,0,0,4.73-1A9.38,9.38,0,0,0,50.73,195a11.72,11.72,0,0,0,1.88-4,18.14,18.14,0,0,0,.61-4.75A17.93,17.93,0,0,0,52.5,181a11.71,11.71,0,0,0-2.1-4,9.18,9.18,0,0,0-3.34-2.51,10.85,10.85,0,0,0-4.39-.86A9.78,9.78,0,0,0,38,174.7a9.59,9.59,0,0,0-3.25,2.8,12,12,0,0,0-1.88,4,18.14,18.14,0,0,0-.61,4.75,18.33,18.33,0,0,0,.61,4.79,11.72,11.72,0,0,0,1.88,4A9.22,9.22,0,0,0,38,197.8,10.31,10.31,0,0,0,42.75,198.82Z"/><path class="cls-1" d="M85.15,180.31a8.08,8.08,0,0,0-3.06-5.14,10.15,10.15,0,0,0-5.84-1.53,8.58,8.58,0,0,0-7.44,3.77,12.21,12.21,0,0,0-1.76,4,19.34,19.34,0,0,0-.57,4.76,21.66,21.66,0,0,0,.49,4.63,12.31,12.31,0,0,0,1.63,4.06,8.64,8.64,0,0,0,3.06,2.88,9.52,9.52,0,0,0,4.82,1.1,8.77,8.77,0,0,0,3.3-.59,8.32,8.32,0,0,0,2.61-1.62,9.74,9.74,0,0,0,1.88-2.45,12.89,12.89,0,0,0,1.16-3.1h2.78a17.53,17.53,0,0,1-1.37,3.86,10.6,10.6,0,0,1-5.94,5.37,13.66,13.66,0,0,1-4.93.81,12,12,0,0,1-5.57-1.2,10.58,10.58,0,0,1-3.78-3.23,13.54,13.54,0,0,1-2.14-4.73,23.83,23.83,0,0,1-.67-5.71,20.83,20.83,0,0,1,1-6.86,12.21,12.21,0,0,1,2.77-4.61,10.42,10.42,0,0,1,4.16-2.59,16.12,16.12,0,0,1,5.21-.81,13.66,13.66,0,0,1,4,.57,9.87,9.87,0,0,1,3.3,1.71,9.19,9.19,0,0,1,2.35,2.81,11.7,11.7,0,0,1,1.28,3.86Z"/><path class="cls-1" d="M97.39,172.11h2.67v16.83c0,3.5.65,6,2,7.57s3.41,2.31,6.31,2.31a11,11,0,0,0,3.87-.6,6,6,0,0,0,2.57-1.85,7.76,7.76,0,0,0,1.41-3.08,19.16,19.16,0,0,0,.43-4.35V172.11h2.67v17.61q0,5.53-2.73,8.46c-1.82,1.94-4.55,2.92-8.22,2.92s-6.43-1-8.23-3-2.71-4.79-2.71-8.4Z"/><path class="cls-1" d="M130.69,191.92a8.43,8.43,0,0,0,.85,3.2,6.16,6.16,0,0,0,1.76,2.13,7,7,0,0,0,2.49,1.2,11.73,11.73,0,0,0,3,.37,9.93,9.93,0,0,0,3.26-.47,6.16,6.16,0,0,0,2.23-1.27,5,5,0,0,0,1.28-1.86A6.27,6.27,0,0,0,146,193a4.47,4.47,0,0,0-.74-2.67,5.89,5.89,0,0,0-1.95-1.67,11.75,11.75,0,0,0-2.74-1c-1-.27-2.09-.52-3.18-.77s-2.14-.54-3.18-.88a9.93,9.93,0,0,1-2.74-1.38,6.48,6.48,0,0,1-1.94-2.21,7,7,0,0,1-.75-3.43,6.87,6.87,0,0,1,.61-2.83,7.16,7.16,0,0,1,1.8-2.43,8.87,8.87,0,0,1,3-1.69,12.9,12.9,0,0,1,4.16-.63,12,12,0,0,1,4.18.67,8.36,8.36,0,0,1,3,1.83,7.51,7.51,0,0,1,1.77,2.68,9.06,9.06,0,0,1,.58,3.26h-2.54a6.52,6.52,0,0,0-.57-2.79,5.33,5.33,0,0,0-1.55-1.92,6.89,6.89,0,0,0-2.24-1.1,9.75,9.75,0,0,0-2.59-.35,9.08,9.08,0,0,0-3.43.57,6.07,6.07,0,0,0-2.22,1.47,4.94,4.94,0,0,0-1.25,4.2,3.82,3.82,0,0,0,1.1,2.19,7,7,0,0,0,2.11,1.36,16.08,16.08,0,0,0,2.77.86c1,.22,2,.46,3.08.71a29.63,29.63,0,0,1,3,.88,9.52,9.52,0,0,1,2.61,1.37,6.4,6.4,0,0,1,1.82,2.22,7.41,7.41,0,0,1,.69,3.39,7.31,7.31,0,0,1-2.71,6.08q-2.7,2.16-7.61,2.16a14.07,14.07,0,0,1-4.08-.57A8.9,8.9,0,0,1,131,198.8a7.84,7.84,0,0,1-2.14-2.86,9.77,9.77,0,0,1-.77-4Z"/><path class="cls-1" d="M179,197.84q-3.19,3.3-9.25,3.3t-9.25-3.3q-4.29-4-4.29-11.64t4.29-11.65q3.19-3.28,9.25-3.29t9.25,3.29q4.28,3.9,4.27,11.65T179,197.84Zm-3.68-4.29q2.06-2.58,2.06-7.35t-2.06-7.35a6.74,6.74,0,0,0-5.57-2.59,6.83,6.83,0,0,0-5.59,2.58q-2.08,2.59-2.09,7.36t2.09,7.35a7.31,7.31,0,0,0,11.16,0Z"/><path class="cls-1" d="M191.63,172.12h6.19L209,191.81V172.12h5.5v28.23h-5.9l-11.49-20v20h-5.5Z"/><path class="cls-1" d="M5.38,223l4-6.44h1.46L6,224.11v5.83H4.77V224.2L0,216.58H1.45Z"/><path class="cls-1" d="M18.13,230.2a5,5,0,0,1-1.74-.34,4,4,0,0,1-1.41-.94,4.5,4.5,0,0,1-1-1.58,6.21,6.21,0,0,1-.35-2.21,7,7,0,0,1,.27-2,4.75,4.75,0,0,1,.84-1.61,4,4,0,0,1,1.39-1.09,4.59,4.59,0,0,1,1.95-.39,4.65,4.65,0,0,1,2,.39,4.14,4.14,0,0,1,1.39,1.08,4.46,4.46,0,0,1,.82,1.61,7.07,7.07,0,0,1,.27,2,6.45,6.45,0,0,1-.31,2.08,4.72,4.72,0,0,1-.9,1.6,4.15,4.15,0,0,1-1.41,1A4.53,4.53,0,0,1,18.13,230.2Zm3.27-5.07a6.66,6.66,0,0,0-.19-1.59,3.62,3.62,0,0,0-.57-1.29,2.83,2.83,0,0,0-1-.87,3.26,3.26,0,0,0-1.5-.31,3,3,0,0,0-1.49.34,2.89,2.89,0,0,0-1,.91,3.93,3.93,0,0,0-.57,1.3,6.31,6.31,0,0,0-.19,1.51,5.71,5.71,0,0,0,.22,1.64,3.78,3.78,0,0,0,.62,1.29,2.78,2.78,0,0,0,1,.84,3.18,3.18,0,0,0,1.41.3,3,3,0,0,0,1.49-.35,2.91,2.91,0,0,0,1-.92,4,4,0,0,0,.57-1.29A6.31,6.31,0,0,0,21.4,225.13Z"/><path class="cls-1" d="M33,220.33h1.12v9.61H33V228.6c-.14.17-.31.35-.5.54a3.26,3.26,0,0,1-.64.51A4.09,4.09,0,0,1,31,230a3.48,3.48,0,0,1-1.12.16,4.2,4.2,0,0,1-1.61-.27,2.72,2.72,0,0,1-1.05-.75,2.94,2.94,0,0,1-.57-1.13,5.11,5.11,0,0,1-.18-1.4v-6.32h1.11v6.31a2.84,2.84,0,0,0,.58,1.9,2.38,2.38,0,0,0,1.89.66,2.79,2.79,0,0,0,1.24-.27,2.55,2.55,0,0,0,.91-.75,3.71,3.71,0,0,0,.58-1.16,4.82,4.82,0,0,0,.2-1.46Z"/><path class="cls-1" d="M44.61,229.94l5.25-13.36h1.43l5.12,13.36h-1.3l-1.54-4.2H47.49l-1.58,4.2Zm3.3-5.27h5.24l-2.62-7Z"/><path class="cls-1" d="M61,229.94H59.9v-9.61H61v1.33a7.25,7.25,0,0,1,1.39-1.15,3.13,3.13,0,0,1,1.71-.44,4.4,4.4,0,0,1,1.65.3A2.8,2.8,0,0,1,67,221.44a2.31,2.31,0,0,1,.42,1.07,10.26,10.26,0,0,1,.07,1.14v6.29H66.41v-6.27a2.87,2.87,0,0,0-.57-1.95,2.41,2.41,0,0,0-1.91-.65,2.63,2.63,0,0,0-1,.16,3,3,0,0,0-.77.41,2.74,2.74,0,0,0-.58.6,3,3,0,0,0-.38.7,3.89,3.89,0,0,0-.2.89c0,.29,0,.6,0,.93Z"/><path class="cls-1" d="M79.5,216.58h1.11v13.36H79.5v-1.69h0a3.05,3.05,0,0,1-.62.84,3.53,3.53,0,0,1-.84.61,4.48,4.48,0,0,1-.94.37,3.87,3.87,0,0,1-.94.13,4.62,4.62,0,0,1-2-.39,3.72,3.72,0,0,1-1.34-1.07,4.41,4.41,0,0,1-.77-1.6,8,8,0,0,1-.24-2,6.87,6.87,0,0,1,.26-1.93,4.54,4.54,0,0,1,.79-1.62,3.81,3.81,0,0,1,1.33-1.12,4.06,4.06,0,0,1,1.9-.41,4.47,4.47,0,0,1,2,.45,3.44,3.44,0,0,1,1.48,1.35Zm0,8.51a5.17,5.17,0,0,0-.23-1.54,3.9,3.9,0,0,0-.64-1.29,3.17,3.17,0,0,0-1-.87,2.87,2.87,0,0,0-1.36-.32,3.08,3.08,0,0,0-1.5.34,2.85,2.85,0,0,0-1,.94,3.93,3.93,0,0,0-.6,1.38,6.65,6.65,0,0,0-.15,1.7,4.89,4.89,0,0,0,.25,1.6,3.36,3.36,0,0,0,.7,1.18,3,3,0,0,0,1,.74,3.46,3.46,0,0,0,1.3.25,3,3,0,0,0,1.39-.32,2.93,2.93,0,0,0,1-.86,4,4,0,0,0,.62-1.3A5.64,5.64,0,0,0,79.5,225.09Z"/><path class="cls-1" d="M96.55,223l4-6.44H102l-4.84,7.53v5.83H95.94V224.2l-4.77-7.62h1.44Z"/><path class="cls-1" d="M109.3,230.2a5,5,0,0,1-1.74-.34,3.84,3.84,0,0,1-1.41-.94,4.5,4.5,0,0,1-1-1.58,6.21,6.21,0,0,1-.36-2.21,7,7,0,0,1,.28-2,4.75,4.75,0,0,1,.84-1.61,4,4,0,0,1,1.39-1.09,5.1,5.1,0,0,1,3.91,0,4.17,4.17,0,0,1,1.4,1.08,4.46,4.46,0,0,1,.82,1.61,7.07,7.07,0,0,1,.27,2,6.45,6.45,0,0,1-.31,2.08,4.72,4.72,0,0,1-.9,1.6,4.15,4.15,0,0,1-1.41,1A4.56,4.56,0,0,1,109.3,230.2Zm3.26-5.07a6.67,6.67,0,0,0-.18-1.59,3.82,3.82,0,0,0-.58-1.29,2.71,2.71,0,0,0-1-.87,3.26,3.26,0,0,0-1.5-.31,3.08,3.08,0,0,0-1.5.34,3,3,0,0,0-1,.91,3.93,3.93,0,0,0-.57,1.3,5.84,5.84,0,0,0-.19,1.51,5.71,5.71,0,0,0,.22,1.64,3.6,3.6,0,0,0,.62,1.29,2.78,2.78,0,0,0,1,.84,3.18,3.18,0,0,0,1.41.3,3,3,0,0,0,1.49-.35,2.79,2.79,0,0,0,1-.92,4.21,4.21,0,0,0,.58-1.29A6.3,6.3,0,0,0,112.56,225.13Z"/><path class="cls-1" d="M124.16,220.33h1.11v9.61h-1.11V228.6c-.15.17-.31.35-.5.54a3.59,3.59,0,0,1-.64.51,4.09,4.09,0,0,1-.84.39,3.52,3.52,0,0,1-1.12.16,4.2,4.2,0,0,1-1.61-.27,2.72,2.72,0,0,1-1-.75,3,3,0,0,1-.58-1.13,5.54,5.54,0,0,1-.17-1.4v-6.32h1.11v6.31a2.79,2.79,0,0,0,.58,1.9,2.38,2.38,0,0,0,1.89.66,2.71,2.71,0,0,0,1.23-.27,2.5,2.5,0,0,0,.92-.75A3.71,3.71,0,0,0,124,227a5.15,5.15,0,0,0,.2-1.46Z"/><path class="cls-1" d="M131,229.94h-1.11v-9.61H131v1.8h0a3.26,3.26,0,0,1,1.19-1.61,3.69,3.69,0,0,1,1.94-.45v1.2a3.22,3.22,0,0,0-1.55.3,2.54,2.54,0,0,0-1,.85,3.35,3.35,0,0,0-.5,1.27,8.45,8.45,0,0,0-.14,1.53Z"/><path class="cls-1" d="M145,229.94V216.58h4.56l1.1,0a9.3,9.3,0,0,1,1.06.13,6.18,6.18,0,0,1,1,.31,5,5,0,0,1,.95.54,4,4,0,0,1,1.1,1.18,6.65,6.65,0,0,1,.67,1.46,8.79,8.79,0,0,1,.36,1.56,11.08,11.08,0,0,1,.1,1.46,12.37,12.37,0,0,1-.08,1.35,10.08,10.08,0,0,1-.27,1.35,7.66,7.66,0,0,1-.49,1.26,5.3,5.3,0,0,1-.78,1.11,4,4,0,0,1-1,.83,4.86,4.86,0,0,1-1.15.49,6.43,6.43,0,0,1-1.25.24,11.43,11.43,0,0,1-1.32.07Zm1.26-1.08h3a11.64,11.64,0,0,0,1.6-.1,4.75,4.75,0,0,0,1.53-.51,3.06,3.06,0,0,0,1.1-.91,4.86,4.86,0,0,0,.67-1.25,6.72,6.72,0,0,0,.36-1.42,12,12,0,0,0,.1-1.43,10.72,10.72,0,0,0-.1-1.48,6.23,6.23,0,0,0-.35-1.43,4.89,4.89,0,0,0-.7-1.24,3.42,3.42,0,0,0-1.15-.93,3.76,3.76,0,0,0-1.41-.41,13,13,0,0,0-1.65-.1h-3Z"/><path class="cls-1" d="M161.29,229.94h-1.11v-9.61h1.11v1.8h0a3.21,3.21,0,0,1,1.2-1.61,3.64,3.64,0,0,1,1.94-.45v1.2a3.29,3.29,0,0,0-1.56.3,2.54,2.54,0,0,0-1,.85,3.35,3.35,0,0,0-.5,1.27,8.45,8.45,0,0,0-.14,1.53Z"/><path class="cls-1" d="M168.85,225.39a5.14,5.14,0,0,0,.2,1.48,3.75,3.75,0,0,0,.6,1.2,3.12,3.12,0,0,0,1,.82,3.18,3.18,0,0,0,1.41.31,3.09,3.09,0,0,0,1.88-.58,2.8,2.8,0,0,0,1-1.63h1.24a5.34,5.34,0,0,1-.54,1.27,3.91,3.91,0,0,1-.83,1,3.66,3.66,0,0,1-1.19.68,4.85,4.85,0,0,1-1.6.24,4.66,4.66,0,0,1-2-.39,3.74,3.74,0,0,1-1.37-1.07,4.41,4.41,0,0,1-.8-1.59,7.46,7.46,0,0,1-.26-2,6.15,6.15,0,0,1,.31-2,5,5,0,0,1,.87-1.62,4.13,4.13,0,0,1,1.38-1.1,4.22,4.22,0,0,1,1.85-.39,3.82,3.82,0,0,1,3.12,1.36,6,6,0,0,1,1.12,4Zm6.27-.93a4.34,4.34,0,0,0-.2-1.32,3.09,3.09,0,0,0-.57-1.08,2.79,2.79,0,0,0-1-.72,3.05,3.05,0,0,0-1.32-.27,2.83,2.83,0,0,0-1.3.28,3,3,0,0,0-1,.74,4,4,0,0,0-.64,1.07,5.14,5.14,0,0,0-.31,1.3Z"/><path class="cls-1" d="M184.75,224.33c.21,0,.46-.06.75-.11a3.07,3.07,0,0,0,.71-.2.58.58,0,0,0,.35-.44,2.89,2.89,0,0,0,.06-.56,1.9,1.9,0,0,0-.54-1.4,2.56,2.56,0,0,0-1.85-.55,5,5,0,0,0-1.06.1,2.44,2.44,0,0,0-.84.35,2.05,2.05,0,0,0-.6.67,3,3,0,0,0-.3,1.05H180.3a3.25,3.25,0,0,1,.39-1.46,2.92,2.92,0,0,1,.86-1,3.69,3.69,0,0,1,1.22-.56,6.45,6.45,0,0,1,1.48-.17,6,6,0,0,1,1.36.15,3.47,3.47,0,0,1,1.12.5,2.41,2.41,0,0,1,.74.92,3.35,3.35,0,0,1,.27,1.41v5.24c0,.43.07.7.23.82s.47.09.94-.08v.87l-.38.11a1.8,1.8,0,0,1-.5.08,2.07,2.07,0,0,1-.5-.06.77.77,0,0,1-.44-.18,1.09,1.09,0,0,1-.27-.33,1.21,1.21,0,0,1-.14-.43,2.56,2.56,0,0,1,0-.49,4.85,4.85,0,0,1-1.61,1.19,4.79,4.79,0,0,1-2,.41,4.42,4.42,0,0,1-1.21-.17,2.71,2.71,0,0,1-1-.52,2.47,2.47,0,0,1-.71-.86,2.71,2.71,0,0,1-.26-1.22c0-1.63,1.12-2.6,3.36-2.89Zm1.87.56a5.24,5.24,0,0,1-1.43.39l-1.44.15a4.09,4.09,0,0,0-2,.57,1.86,1.86,0,0,0-.54,2.24,1.64,1.64,0,0,0,.47.54,1.8,1.8,0,0,0,.67.31,2.87,2.87,0,0,0,.77.11,5,5,0,0,0,1.29-.17,3.43,3.43,0,0,0,1.13-.51,2.44,2.44,0,0,0,1.08-2.13Z"/><path class="cls-1" d="M193.47,229.94h-1.11v-9.61h1.11v1.44h0a2.94,2.94,0,0,1,1.22-1.27,3.63,3.63,0,0,1,1.75-.43,4.1,4.1,0,0,1,1.13.14,2.79,2.79,0,0,1,.79.4,2.75,2.75,0,0,1,.54.59,4,4,0,0,1,.36.72,3.2,3.2,0,0,1,1.29-1.4,3.72,3.72,0,0,1,1.84-.45,3.19,3.19,0,0,1,1.57.32,2.38,2.38,0,0,1,.9.85,3.39,3.39,0,0,1,.42,1.22,9.36,9.36,0,0,1,.1,1.41v6.07h-1.11v-6.65a2.72,2.72,0,0,0-.44-1.63,1.91,1.91,0,0,0-1.62-.59,2.72,2.72,0,0,0-1.18.27,2.66,2.66,0,0,0-1,.82,1.94,1.94,0,0,0-.31.57,4.85,4.85,0,0,0-.19.68,5.65,5.65,0,0,0-.11.7c0,.24,0,.45,0,.65v5.18h-1.12v-6.65a2.72,2.72,0,0,0-.43-1.63,1.92,1.92,0,0,0-1.63-.59,2.64,2.64,0,0,0-1.17.27,2.77,2.77,0,0,0-1,.82,2.19,2.19,0,0,0-.3.57,3.81,3.81,0,0,0-.2.68,5.62,5.62,0,0,0-.1.7c0,.24,0,.45,0,.65Z"/><path class="cls-1" d="M210.47,226.93a2.73,2.73,0,0,0,.94,1.75,3.08,3.08,0,0,0,1.93.52,3.3,3.3,0,0,0,1.06-.15,2.18,2.18,0,0,0,.74-.4,1.79,1.79,0,0,0,.43-.57,1.53,1.53,0,0,0,.15-.67,1.22,1.22,0,0,0-.45-1,3.51,3.51,0,0,0-1.15-.54c-.45-.13-1-.24-1.48-.34a7.57,7.57,0,0,1-1.49-.41,3.1,3.1,0,0,1-1.14-.8,2.19,2.19,0,0,1-.45-1.47,2.49,2.49,0,0,1,.88-2,3.65,3.65,0,0,1,2.5-.77,4.28,4.28,0,0,1,2.53.69,3.21,3.21,0,0,1,1.18,2.33h-1.14a2.05,2.05,0,0,0-.84-1.57,3.16,3.16,0,0,0-1.75-.45,2.52,2.52,0,0,0-1.62.45,1.48,1.48,0,0,0-.55,1.2,1.17,1.17,0,0,0,.45,1,3.57,3.57,0,0,0,1.14.56c.46.14,1,.27,1.49.38a7.53,7.53,0,0,1,1.48.47,3.23,3.23,0,0,1,1.14.83,2.09,2.09,0,0,1,.46,1.45,2.41,2.41,0,0,1-.3,1.21,2.55,2.55,0,0,1-.82.88,3.63,3.63,0,0,1-1.23.53,6.45,6.45,0,0,1-1.57.18,4.38,4.38,0,0,1-1.51-.25,3.28,3.28,0,0,1-1.12-.7,3.32,3.32,0,0,1-.73-1,3.58,3.58,0,0,1-.29-1.28Z"/></g></g></svg>