<svg width="322" height="180" viewBox="0 0 322 180" fill="none" xmlns="http://www.w3.org/2000/svg">
<path d="M155.801 87.9409V0C128.795 0.692448 103.521 7.96315 81.3626 20.4272L125.333 94.8653C134.681 90.7107 144.722 88.2871 155.801 87.9409Z" fill="#F5EB16"/>
<path d="M228.508 118.755L299.83 78.5928C286.327 56.0882 267.631 37.0459 245.126 23.5432L201.502 96.9427C212.235 102.482 221.583 109.753 228.508 118.755Z" fill="#0E9347"/>
<path d="M195.616 94.5191L239.587 20.081C216.736 7.2707 190.077 0 162.033 0V87.9409C174.151 87.9409 185.23 90.3644 195.616 94.5191Z" fill="#8EC642"/>
<path d="M88.9795 123.948L18.3499 84.1324C6.57825 105.944 0 130.873 0 157.186H78.5928C78.5928 145.068 82.4013 133.642 88.9795 123.948Z" fill="#E73533"/>
<path d="M302.946 84.1324L232.316 123.948C238.895 133.989 242.357 145.068 242.357 157.532H321.296C321.296 130.873 314.718 105.944 302.946 84.1324Z" fill="#096A37"/>
<path d="M119.447 97.2889L75.8231 23.5432C53.3186 37.0459 34.6225 56.0882 21.1197 78.5928L92.4418 118.755C99.3663 109.753 108.714 102.482 119.447 97.2889Z" fill="#F89523"/>
<path d="M49.8995 139.049L49.4468 140.826L42.5942 139.082L42.712 141.371L41.2664 141.003L40.8822 136.956L40.9307 136.765L49.8995 139.049ZM48.4736 129.162C49.7121 129.477 50.5942 129.974 51.1198 130.654C51.6454 131.334 51.7824 132.168 51.5308 133.156C51.2823 134.132 50.7703 134.797 49.9949 135.149C49.2195 135.502 48.2294 135.532 47.0247 135.238L45.3762 134.818C44.1254 134.5 43.2418 134 42.7254 133.318C42.2101 132.632 42.0767 131.801 42.3252 130.825C42.5737 129.849 43.0856 129.185 43.861 128.832C44.6324 128.478 45.6204 128.448 46.8251 128.742L48.4736 129.162ZM46.2125 130.479C45.4702 130.29 44.9048 130.255 44.5164 130.375C44.1248 130.489 43.8742 130.761 43.7646 131.192C43.6581 131.61 43.7412 131.961 44.014 132.244C44.2838 132.523 44.7595 132.755 45.4413 132.942L47.6189 133.496C48.3488 133.682 48.9173 133.722 49.3242 133.616C49.728 133.505 49.9858 133.23 50.0975 132.791C50.2082 132.356 50.1179 131.999 49.8266 131.72C49.5353 131.441 49.04 131.208 48.3409 131.021L46.2125 130.479ZM45.2435 127.081C44.6939 126.942 44.2944 126.65 44.0449 126.206C43.7912 125.762 43.738 125.251 43.8853 124.672C44.0346 124.086 44.3248 123.658 44.7561 123.388C45.1832 123.116 45.6859 123.054 46.2641 123.202L46.707 123.314C47.2606 123.455 47.6601 123.747 47.9056 124.189C48.151 124.632 48.2001 125.142 48.0529 125.72C47.9046 126.303 47.6164 126.732 47.1882 127.007C46.757 127.277 46.2543 127.339 45.6802 127.193L45.2435 127.081ZM46.0178 126.021C46.2639 126.084 46.4805 126.065 46.6678 125.964C46.852 125.858 46.9733 125.69 47.0318 125.46C47.0902 125.231 47.0608 125.029 46.9435 124.855C46.8263 124.681 46.6405 124.562 46.3862 124.497L45.931 124.381C45.685 124.318 45.4689 124.335 45.2827 124.432C45.0965 124.529 44.9731 124.696 44.9125 124.934C44.8551 125.159 44.8845 125.361 45.0007 125.539C45.1129 125.716 45.3022 125.839 45.5688 125.907L46.0178 126.021ZM51.3716 124.083C50.8179 123.942 50.4189 123.648 50.1745 123.202C49.926 122.754 49.8749 122.243 50.0211 121.669C50.1693 121.087 50.457 120.66 50.8842 120.389C51.3082 120.113 51.8135 120.049 52.3999 120.198L52.8428 120.311C53.3923 120.451 53.7924 120.741 54.043 121.18C54.2894 121.618 54.338 122.131 54.1887 122.717C54.0383 123.308 53.7475 123.738 53.3163 124.008C52.8851 124.278 52.3886 124.342 51.8268 124.199L51.3716 124.083ZM52.1521 123.024C52.3776 123.081 52.5892 123.057 52.7867 122.95C52.9842 122.843 53.1112 122.679 53.1676 122.457C53.295 121.957 53.0818 121.636 52.5282 121.495L52.0607 121.376C51.8146 121.314 51.6001 121.333 51.4169 121.435C51.2297 121.536 51.1068 121.701 51.0484 121.931C50.9899 122.16 51.0188 122.364 51.135 122.542C51.2471 122.719 51.4324 122.841 51.6907 122.907L52.1521 123.024ZM52.3928 126.452L51.7044 127.2L45.8177 121.044L46.5061 120.296L52.3928 126.452Z" fill="white"/>
<path d="M76.9326 86.0244L72.422 90.4725L71.5395 89.5777L71.4308 85.2095C71.4081 84.6019 71.3487 84.1107 71.2526 83.736C71.1595 83.3583 71.0074 83.0625 70.7965 82.8486C70.5082 82.5563 70.2086 82.4001 69.8975 82.38C69.5835 82.3568 69.2894 82.4805 69.0152 82.7509C68.7199 83.0421 68.5874 83.3748 68.6177 83.749C68.648 84.1173 68.8266 84.4672 69.1535 84.7986L67.8428 86.0912C67.4476 85.6904 67.1815 85.2307 67.0445 84.7121C66.9105 84.1905 66.9261 83.6639 67.0914 83.1324C67.2537 82.5979 67.5563 82.1123 67.9993 81.6755C68.6772 81.0069 69.3635 80.6511 70.058 80.6081C70.7556 80.5621 71.397 80.8359 71.9824 81.4295C72.3033 81.7549 72.5458 82.1695 72.7098 82.6734C72.8739 83.1773 72.9724 83.8557 73.0053 84.7088L73.0648 87.7614L75.8941 84.9713L76.9326 86.0244ZM79.4833 78.1423C80.3806 79.0523 80.8787 79.934 80.9775 80.7875C81.0762 81.6411 80.7626 82.4259 80.0364 83.142C79.3193 83.8491 78.5376 84.1534 77.6915 84.0547C76.8453 83.9561 75.9824 83.4698 75.1028 82.5958L73.9083 81.3846C73.002 80.4656 72.504 79.5808 72.4141 78.7304C72.3273 77.8769 72.6425 77.0966 73.3596 76.3894C74.0767 75.6823 74.8584 75.378 75.7045 75.4767C76.5477 75.5723 77.4091 76.0571 78.2888 76.931L79.4833 78.1423ZM76.8667 78.1016C76.3289 77.5562 75.8628 77.2343 75.4685 77.1358C75.0743 77.0313 74.7189 77.135 74.4026 77.447C74.0952 77.7501 73.9851 78.0935 74.0722 78.4771C74.1593 78.8548 74.4465 79.2996 74.9337 79.8117L76.5115 81.4117C77.0404 81.948 77.5064 82.276 77.9095 82.3955C78.3127 82.509 78.6755 82.4068 78.9979 82.0889C79.3173 81.7739 79.4245 81.4216 79.3195 81.0318C79.2145 80.6421 78.9109 80.1866 78.4089 79.6654L76.8667 78.1016ZM77.7927 74.6923C77.3945 74.2885 77.2032 73.8323 77.2187 73.3237C77.2313 72.8121 77.45 72.3468 77.8748 71.9279C78.3057 71.503 78.7755 71.2863 79.2843 71.2779C79.7901 71.2665 80.2525 71.4732 80.6714 71.898L80.9923 72.2234C81.3935 72.6302 81.5848 73.0864 81.5663 73.592C81.5478 74.0975 81.3261 74.5598 80.9013 74.9788C80.4734 75.4007 80.0051 75.6189 79.4963 75.6333C78.9875 75.6417 78.5252 75.435 78.1092 75.0132L77.7927 74.6923ZM79.0037 74.1845C79.182 74.3653 79.3773 74.4609 79.5897 74.4714C79.8021 74.4759 79.9927 74.3949 80.1614 74.2285C80.3302 74.0621 80.4093 73.8742 80.3988 73.6646C80.3883 73.4551 80.2909 73.2569 80.1067 73.0701L79.7768 72.7356C79.5986 72.5548 79.4047 72.4577 79.1954 72.4443C78.986 72.4309 78.7939 72.5103 78.6192 72.6827C78.4534 72.8461 78.3743 73.0341 78.3818 73.2466C78.3863 73.4561 78.4852 73.6587 78.6783 73.8546L79.0037 74.1845ZM84.5887 75.2918C84.1876 74.885 83.9978 74.4273 84.0193 73.9188C84.0378 73.4072 84.258 72.9434 84.6798 72.5275C85.1077 72.1055 85.5745 71.8888 86.0803 71.8774C86.5862 71.86 87.0515 72.0667 87.4764 72.4976L87.7973 72.823C88.1955 73.2268 88.3883 73.6815 88.3758 74.1871C88.3603 74.6897 88.1372 75.1535 87.7063 75.5784C87.2724 76.0062 86.8011 76.2244 86.2923 76.2328C85.7835 76.2412 85.3256 76.039 84.9185 75.6262L84.5887 75.2918ZM85.8042 74.7886C85.9676 74.9543 86.1615 75.0424 86.3858 75.053C86.6102 75.0635 86.8037 74.9885 86.9664 74.8281C87.334 74.4656 87.3173 74.0809 86.9161 73.6742L86.5774 73.3307C86.3991 73.1499 86.2053 73.0558 85.9958 73.0483C85.7835 73.0379 85.5929 73.1158 85.4242 73.2822C85.2554 73.4486 85.1748 73.6381 85.1823 73.8506C85.1868 74.0601 85.2827 74.2598 85.4699 74.4496L85.8042 74.7886ZM84.2387 77.8478L83.2627 78.1328L81.4041 69.8204L82.3801 69.5355L84.2387 77.8478Z" fill="white"/>
<path d="M120.646 49.5079L121.589 49.2536C122.039 49.1325 122.342 48.9304 122.498 48.6473C122.654 48.3642 122.682 48.0368 122.581 47.6649C122.485 47.3054 122.301 47.0546 122.03 46.9128C121.764 46.7698 121.443 46.749 121.067 46.8502C120.728 46.9416 120.469 47.1121 120.291 47.3617C120.112 47.6072 120.062 47.8791 120.143 48.1774L118.371 48.6547C118.246 48.1888 118.258 47.7385 118.408 47.3036C118.561 46.8635 118.835 46.4787 119.228 46.1492C119.625 45.8186 120.096 45.5801 120.639 45.4337C121.583 45.1794 122.384 45.2069 123.041 45.5163C123.698 45.8215 124.133 46.3705 124.346 47.1632C124.456 47.5718 124.433 47.9813 124.276 48.3917C124.119 48.802 123.863 49.1537 123.509 49.4465C124.06 49.4909 124.506 49.6599 124.848 49.9534C125.194 50.2458 125.433 50.6372 125.565 51.1275C125.779 51.9202 125.66 52.6337 125.209 53.2681C124.761 53.9014 124.062 54.3463 123.11 54.6028C122.219 54.8428 121.426 54.8044 120.732 54.4875C120.041 54.1696 119.592 53.6244 119.384 52.8522L121.155 52.3749C121.245 52.71 121.444 52.9502 121.75 53.0955C122.061 53.2397 122.4 53.2623 122.768 53.1632C123.189 53.0498 123.488 52.8509 123.665 52.5664C123.846 52.2767 123.887 51.948 123.788 51.5802C123.548 50.6895 122.937 50.3762 121.957 50.6404L121.019 50.8931L120.646 49.5079ZM132.477 47.9899C132.81 49.2239 132.809 50.2365 132.474 51.0279C132.14 51.8193 131.48 52.3477 130.495 52.613C129.523 52.875 128.693 52.7546 128.005 52.2518C127.317 51.749 126.806 50.9006 126.471 49.7067L126.029 48.0641C125.693 46.8179 125.695 45.8026 126.036 45.0183C126.381 44.2329 127.04 43.7092 128.013 43.4471C128.985 43.1851 129.815 43.3055 130.503 43.8083C131.189 44.307 131.7 45.1533 132.035 46.3473L132.477 47.9899ZM130.221 46.6651C130.021 45.9256 129.774 45.4158 129.48 45.1358C129.188 44.8506 128.828 44.7658 128.399 44.8814C127.982 44.9936 127.717 45.2382 127.604 45.6149C127.494 45.9865 127.524 46.5151 127.696 47.2008L128.28 49.3705C128.476 50.0978 128.72 50.6128 129.012 50.9154C129.307 51.2129 129.673 51.3027 130.11 51.1849C130.544 51.0682 130.81 50.8144 130.911 50.4235C131.012 50.0326 130.972 49.4867 130.792 48.7858L130.221 46.6651ZM132.706 44.1547C132.559 43.6072 132.617 43.1159 132.881 42.681C133.144 42.242 133.564 41.9449 134.14 41.7897C134.724 41.6322 135.24 41.6752 135.687 41.9186C136.132 42.1579 136.433 42.5656 136.588 43.1417L136.707 43.583C136.856 44.1346 136.797 44.6258 136.532 45.0567C136.267 45.4875 135.846 45.7805 135.27 45.9358C134.69 46.0921 134.175 46.0512 133.725 45.813C133.278 45.5696 132.978 45.1619 132.824 44.5899L132.706 44.1547ZM134.01 44.3096C134.076 44.5547 134.199 44.7342 134.379 44.848C134.561 44.9565 134.767 44.98 134.996 44.9183C135.225 44.8567 135.386 44.7321 135.48 44.5446C135.575 44.3571 135.587 44.1366 135.519 43.8833L135.397 43.4298C135.331 43.1846 135.21 43.0046 135.035 42.8897C134.859 42.7749 134.653 42.7494 134.416 42.8132C134.191 42.8738 134.03 42.9984 133.931 43.187C133.832 43.3715 133.818 43.5966 133.89 43.8622L134.01 44.3096ZM138.325 48.0251C138.176 47.4735 138.236 46.9817 138.506 46.5498C138.774 46.1137 139.194 45.8187 139.766 45.6645C140.346 45.5082 140.859 45.5497 141.305 45.789C141.754 46.0231 142.057 46.4323 142.214 47.0166L142.333 47.4579C142.481 48.0054 142.424 48.4961 142.164 48.9299C141.903 49.3596 141.481 49.6532 140.896 49.8106C140.308 49.9692 139.79 49.9267 139.343 49.6834C138.897 49.44 138.598 49.0384 138.447 48.4786L138.325 48.0251ZM139.63 48.1861C139.691 48.4108 139.816 48.5831 140.006 48.7028C140.196 48.8225 140.401 48.8526 140.622 48.7932C141.121 48.6589 141.296 48.3159 141.147 47.7643L141.021 47.2985C140.955 47.0533 140.833 46.8759 140.655 46.7663C140.475 46.6525 140.271 46.6264 140.042 46.6881C139.813 46.7497 139.649 46.8749 139.551 47.0635C139.452 47.248 139.437 47.469 139.506 47.7264L139.63 48.1861ZM136.761 50.0768L135.771 49.8439L138.249 41.6949L139.239 41.9278L136.761 50.0768Z" fill="white"/>
<path d="M184.591 48.0161L185.604 48.2826L185.228 49.7129L184.215 49.4465L183.707 51.3802L181.932 50.9136L182.441 48.9799L178.776 48.0159L178.99 46.8777L184.265 41.9706L186.057 42.442L184.591 48.0161ZM180.841 47.0296L182.817 47.5495L183.647 44.3941L183.477 44.566L180.841 47.0296ZM192.665 49.7853C192.34 51.0212 191.836 51.8993 191.152 52.4196C190.468 52.9399 189.633 53.0703 188.647 52.8109C187.673 52.5547 187.012 52.0375 186.666 51.2593C186.319 50.4812 186.297 49.4909 186.6 48.2886L187.033 46.6433C187.361 45.3951 187.868 44.5155 188.554 44.0045C189.244 43.4946 190.076 43.3677 191.05 43.6239C192.024 43.8801 192.684 44.3973 193.031 45.1754C193.379 45.9495 193.401 46.9377 193.098 48.1401L192.665 49.7853ZM191.366 47.5138C191.561 46.7731 191.6 46.208 191.483 45.8186C191.372 45.4261 191.102 45.1734 190.672 45.0604C190.255 44.9506 189.903 45.031 189.618 45.3015C189.337 45.5691 189.101 46.043 188.909 46.7232L188.337 48.8964C188.146 49.6249 188.101 50.193 188.204 50.6007C188.312 51.0054 188.585 51.2653 189.023 51.3805C189.457 51.4946 189.815 51.4071 190.096 51.118C190.378 50.8289 190.615 50.3355 190.807 49.6379L191.366 47.5138ZM194.771 46.5716C194.915 46.0232 195.21 45.6259 195.655 45.3799C196.102 45.1298 196.613 45.0806 197.19 45.2324C197.776 45.3863 198.202 45.6799 198.468 46.1133C198.736 46.5425 198.794 47.0457 198.642 47.6227L198.526 48.0647C198.381 48.6172 198.086 49.0144 197.642 49.2564C197.197 49.4983 196.687 49.5434 196.11 49.3916C195.528 49.2388 195.102 48.9472 194.83 48.5169C194.563 48.0835 194.505 47.5804 194.656 47.0074L194.771 46.5716ZM195.825 47.3543C195.76 47.5998 195.778 47.8166 195.877 48.0046C195.982 48.1896 196.148 48.3123 196.378 48.3726C196.607 48.4329 196.809 48.405 196.984 48.2891C197.159 48.1732 197.279 47.9884 197.346 47.7347L197.466 47.2804C197.53 47.0348 197.515 46.8186 197.42 46.6316C197.324 46.4447 197.158 46.32 196.921 46.2576C196.696 46.1984 196.494 46.2262 196.315 46.341C196.137 46.4517 196.013 46.6401 195.943 46.9061L195.825 47.3543ZM197.721 52.7231C197.866 52.1706 198.163 51.7739 198.612 51.533C199.061 51.2881 199.572 51.241 200.145 51.3917C200.726 51.5445 201.151 51.8355 201.419 52.2648C201.692 52.691 201.751 53.1967 201.597 53.782L201.481 54.224C201.337 54.7724 201.044 55.1701 200.603 55.4173C200.162 55.6603 199.65 55.7048 199.064 55.5509C198.475 55.3959 198.047 55.1017 197.78 54.6684C197.514 54.2351 197.454 53.738 197.601 53.1774L197.721 52.7231ZM198.774 53.5119C198.714 53.737 198.738 53.9487 198.843 54.1471C198.948 54.3455 199.111 54.4737 199.332 54.5318C199.832 54.6632 200.154 54.4526 200.299 53.9001L200.422 53.4335C200.487 53.188 200.469 52.9732 200.368 52.7893C200.269 52.6013 200.105 52.4771 199.876 52.4168C199.646 52.3566 199.442 52.3838 199.263 52.4987C199.085 52.6094 198.963 52.7937 198.895 53.0515L198.774 53.5119ZM195.344 53.7256L194.601 53.0314L200.803 47.1934L201.546 47.8876L195.344 53.7256Z" fill="white"/>
<path d="M236.763 71.6962L240.537 68.8481L244.104 72.604L242.994 73.6575L240.463 70.9925L238.865 72.1949C239.334 72.3507 239.738 72.6066 240.076 72.9625C240.682 73.6008 240.959 74.2889 240.907 75.0269C240.855 75.7649 240.473 76.472 239.761 77.148C239.329 77.5589 238.853 77.8355 238.334 77.9778C237.822 78.1202 237.309 78.1114 236.795 77.9515C236.284 77.7887 235.809 77.4756 235.369 77.0122C234.984 76.6072 234.709 76.154 234.542 75.6529C234.378 75.1488 234.349 74.6541 234.455 74.1689C234.563 73.6868 234.801 73.2589 235.17 72.8853L236.42 74.2017C236.167 74.4945 236.041 74.7981 236.042 75.1124C236.049 75.4268 236.181 75.7191 236.437 75.9891C236.723 76.2898 237.05 76.4195 237.419 76.3782C237.792 76.3339 238.176 76.1238 238.572 75.7479C238.952 75.3865 239.155 75.0161 239.18 74.6366C239.204 74.2571 239.053 73.8955 238.727 73.5518C238.427 73.2358 238.101 73.0582 237.749 73.0192L237.506 73.004L236.763 71.6962ZM245.475 81.9202C244.548 82.8002 243.657 83.2816 242.802 83.3643C241.947 83.447 241.168 83.1186 240.466 82.3791C239.772 81.6488 239.483 80.8615 239.597 80.0174C239.712 79.1732 240.214 78.3196 241.105 77.4566L242.338 76.2851C243.274 75.3963 244.168 74.915 245.02 74.8412C245.875 74.7705 246.649 75.1003 247.343 75.8306C248.036 76.5609 248.326 77.3481 248.211 78.1923C248.1 79.0335 247.599 79.8857 246.709 80.7487L245.475 81.9202ZM245.565 79.3049C246.12 78.7774 246.451 78.3175 246.557 77.9251C246.669 77.5329 246.572 77.1757 246.266 76.8535C245.969 76.5405 245.627 76.4239 245.242 76.5038C244.863 76.5838 244.413 76.8625 243.892 77.34L242.262 78.8873C241.716 79.4061 241.379 79.8658 241.252 80.2666C241.131 80.6676 241.226 81.0323 241.538 81.3606C241.847 81.6859 242.197 81.7997 242.589 81.702C242.981 81.6044 243.442 81.3094 243.972 80.8173L245.565 79.3049ZM248.956 80.2949C249.367 79.9044 249.827 79.7217 250.335 79.7468C250.847 79.7689 251.308 79.9964 251.719 80.429C252.135 80.8678 252.343 81.3416 252.342 81.8505C252.344 82.3564 252.129 82.8148 251.696 83.2257L251.364 83.5404C250.95 83.9338 250.49 84.1165 249.985 84.0885C249.48 84.0605 249.022 83.8302 248.611 83.3975C248.197 82.9618 247.988 82.4894 247.983 81.9804C247.985 81.4716 248.2 81.0132 248.629 80.6052L248.956 80.2949ZM249.441 81.5152C249.257 81.69 249.158 81.8835 249.143 82.0957C249.135 82.308 249.212 82.5001 249.375 82.6719C249.539 82.8437 249.725 82.9264 249.935 82.9198C250.144 82.9133 250.344 82.8196 250.535 82.639L250.875 82.3155C251.059 82.1406 251.16 81.9487 251.177 81.7396C251.195 81.5305 251.119 81.337 250.95 81.159C250.79 80.9902 250.603 80.9076 250.391 80.9111C250.181 80.9117 249.977 81.0067 249.777 81.1961L249.441 81.5152ZM248.229 87.0784C248.643 86.685 249.104 86.5038 249.612 86.5349C250.124 86.5631 250.583 86.7919 250.991 87.2215C251.405 87.6573 251.613 88.1281 251.615 88.634C251.623 89.1401 251.407 89.6015 250.968 90.0182L250.637 90.3329C250.226 90.7234 249.767 90.9076 249.262 90.8856C248.76 90.8607 248.3 90.6288 247.884 90.19C247.464 89.7481 247.255 89.2728 247.256 88.764C247.257 88.2551 247.468 87.8011 247.888 87.4019L248.229 87.0784ZM248.709 88.3031C248.54 88.4634 248.449 88.6556 248.434 88.8797C248.419 89.1038 248.49 89.2987 248.648 89.4644C249.003 89.8388 249.388 89.8292 249.802 89.4358L250.152 89.1036C250.336 88.9288 250.434 88.7367 250.445 88.5275C250.46 88.3153 250.386 88.1234 250.222 87.9515C250.059 87.7797 249.871 87.6955 249.659 87.699C249.449 87.6996 249.248 87.7917 249.054 87.9752L248.709 88.3031ZM245.68 86.6803L245.413 85.6991L253.759 83.9973L254.026 84.9785L245.68 86.6803Z" fill="white"/>
<path d="M276.67 124.564L275.205 124.932L275.162 124.76C274.947 123.958 274.575 123.362 274.045 122.972C273.516 122.586 272.878 122.434 272.131 122.517C272.735 122.871 273.128 123.412 273.311 124.138C273.507 124.918 273.383 125.608 272.94 126.208C272.498 126.808 271.821 127.222 270.91 127.451C270.327 127.597 269.768 127.603 269.232 127.467C268.697 127.335 268.24 127.07 267.861 126.672C267.482 126.279 267.22 125.791 267.074 125.208C266.836 124.264 266.973 123.418 267.483 122.67C267.995 121.926 268.798 121.417 269.894 121.142L270.534 120.981C271.507 120.736 272.411 120.704 273.245 120.882C274.085 121.064 274.794 121.446 275.373 122.03C275.956 122.616 276.364 123.362 276.596 124.268L276.67 124.564ZM271.746 123.955C271.674 123.668 271.533 123.426 271.322 123.231C271.115 123.034 270.875 122.911 270.601 122.862L270.059 122.998C269.464 123.148 269.028 123.382 268.75 123.7C268.476 124.018 268.393 124.388 268.499 124.81C268.595 125.192 268.822 125.462 269.18 125.621C269.544 125.783 269.966 125.803 270.446 125.683C270.934 125.56 271.298 125.342 271.538 125.029C271.778 124.715 271.847 124.357 271.746 123.955ZM273.443 134.354C272.203 134.666 271.191 134.647 270.405 134.299C269.62 133.951 269.102 133.283 268.854 132.294C268.609 131.317 268.743 130.489 269.257 129.81C269.772 129.131 270.629 128.634 271.828 128.32L273.478 127.905C274.73 127.591 275.745 127.611 276.523 127.965C277.303 128.323 277.815 128.991 278.061 129.967C278.306 130.944 278.172 131.772 277.657 132.451C277.147 133.129 276.292 133.625 275.093 133.94L273.443 134.354ZM274.806 132.12C275.548 131.934 276.062 131.696 276.347 131.406C276.637 131.119 276.728 130.76 276.62 130.329C276.515 129.911 276.275 129.642 275.9 129.522C275.531 129.405 275.002 129.427 274.313 129.587L272.134 130.134C271.403 130.318 270.884 130.553 270.577 130.84C270.274 131.13 270.178 131.494 270.288 131.933C270.398 132.368 270.647 132.64 271.036 132.747C271.425 132.854 271.972 132.824 272.675 132.656L274.806 132.12ZM277.273 134.649C277.823 134.51 278.313 134.577 278.744 134.848C279.178 135.119 279.468 135.544 279.614 136.122C279.761 136.709 279.709 137.224 279.458 137.667C279.212 138.108 278.799 138.402 278.22 138.547L277.777 138.658C277.223 138.798 276.733 138.731 276.306 138.458C275.88 138.186 275.594 137.76 275.449 137.182C275.302 136.599 275.352 136.085 275.598 135.639C275.849 135.196 276.262 134.903 276.836 134.758L277.273 134.649ZM277.096 135.95C276.85 136.012 276.669 136.131 276.552 136.309C276.44 136.49 276.413 136.695 276.471 136.925C276.529 137.155 276.65 137.318 276.836 137.416C277.022 137.513 277.242 137.53 277.497 137.466L277.952 137.351C278.199 137.289 278.381 137.172 278.498 136.998C278.616 136.824 278.645 136.619 278.586 136.381C278.529 136.155 278.407 135.991 278.22 135.89C278.037 135.787 277.812 135.77 277.546 135.837L277.096 135.95ZM273.308 140.2C273.862 140.061 274.353 140.13 274.78 140.406C275.211 140.682 275.499 141.107 275.644 141.682C275.79 142.264 275.74 142.777 275.493 143.218C275.251 143.663 274.837 143.959 274.25 144.106L273.807 144.218C273.257 144.356 272.767 144.291 272.338 144.024C271.913 143.756 271.626 143.328 271.479 142.741C271.33 142.15 271.382 141.633 271.632 141.19C271.883 140.748 272.29 140.456 272.852 140.315L273.308 140.2ZM273.125 141.503C272.899 141.56 272.725 141.682 272.602 141.87C272.479 142.058 272.445 142.263 272.501 142.484C272.627 142.985 272.966 143.166 273.521 143.026L273.988 142.909C274.235 142.847 274.414 142.728 274.527 142.551C274.644 142.373 274.673 142.17 274.615 141.94C274.558 141.71 274.435 141.544 274.248 141.443C274.066 141.341 273.845 141.322 273.586 141.387L273.125 141.503ZM271.283 138.601L271.533 137.616L279.638 140.233L279.389 141.218L271.283 138.601Z" fill="white"/>
</svg>
