<svg width="322" height="180" viewBox="0 0 322 180" fill="none" xmlns="http://www.w3.org/2000/svg">
<path d="M155.801 87.9409V0C128.795 0.692448 103.521 7.96315 81.3626 20.4272L125.333 94.8653C134.681 90.7107 144.722 88.2871 155.801 87.9409Z" fill="#F5EB16"/>
<path d="M228.508 118.755L299.83 78.5928C286.327 56.0882 267.631 37.0459 245.126 23.5432L201.502 96.9427C212.235 102.482 221.583 109.753 228.508 118.755Z" fill="#0E9347"/>
<path d="M195.616 94.5191L239.587 20.081C216.736 7.2707 190.077 0 162.033 0V87.9409C174.151 87.9409 185.23 90.3644 195.616 94.5191Z" fill="#8EC642"/>
<path d="M88.9795 123.948L18.3499 84.1324C6.57825 105.944 0 130.873 0 157.186H78.5928C78.5928 145.068 82.4013 133.642 88.9795 123.948Z" fill="#E73533"/>
<path d="M302.946 84.1324L232.316 123.948C238.895 133.989 242.357 145.068 242.357 157.532H321.296C321.296 130.873 314.718 105.944 302.946 84.1324Z" fill="#096A37"/>
<path d="M119.447 97.2889L75.8231 23.5432C53.3186 37.0459 34.6225 56.0882 21.1197 78.5928L92.4418 118.755C99.3663 109.753 108.714 102.482 119.447 97.2889Z" fill="#F89523"/>
<path d="M49.4372 130.24L48.7408 132.975L38.1982 130.291L38.3795 133.814L36.1556 133.247L35.5644 127.02L35.6391 126.727L49.4372 130.24Z" fill="white"/>
<path d="M81.4502 76.5392L74.5108 83.3824L73.1531 82.0057L72.9859 75.2854C72.951 74.3506 72.8596 73.595 72.7117 73.0185C72.5684 72.4375 72.3345 71.9824 72.0099 71.6532C71.5665 71.2036 71.1055 70.9633 70.627 70.9323C70.1438 70.8967 69.6913 71.0869 69.2695 71.5029C68.8152 71.9509 68.6114 72.4628 68.658 73.0386C68.7047 73.6051 68.9795 74.1434 69.4823 74.6533L67.4658 76.6418C66.8578 76.0253 66.4484 75.3181 66.2376 74.5202C66.0315 73.7177 66.0555 72.9076 66.3098 72.0899C66.5596 71.2676 67.0252 70.5205 67.7066 69.8485C68.7496 68.8199 69.8053 68.2726 70.8739 68.2064C71.947 68.1356 72.9339 68.5568 73.8344 69.47C74.3281 69.9707 74.7012 70.6086 74.9536 71.3837C75.206 72.1589 75.3575 73.2027 75.4082 74.5151L75.4997 79.2115L79.8525 74.919L81.4502 76.5392Z" fill="white"/>
<path d="M125.463 41.365L126.915 40.9737C127.606 40.7874 128.072 40.4765 128.312 40.041C128.552 39.6055 128.595 39.1017 128.441 38.5297C128.292 37.9765 128.009 37.5908 127.593 37.3725C127.183 37.1526 126.689 37.1205 126.111 37.2763C125.589 37.4169 125.191 37.6792 124.917 38.0632C124.641 38.4409 124.565 38.8592 124.689 39.3181L121.964 40.0523C121.771 39.3357 121.79 38.6429 122.021 37.9738C122.256 37.2967 122.677 36.7047 123.282 36.1978C123.893 35.6892 124.617 35.3223 125.453 35.097C126.905 34.7058 128.137 34.7481 129.148 35.224C130.158 35.6936 130.827 36.5382 131.156 37.7578C131.325 38.3864 131.289 39.0164 131.048 39.6477C130.807 40.2791 130.413 40.8201 129.867 41.2706C130.715 41.3389 131.402 41.5988 131.928 42.0504C132.461 42.5002 132.828 43.1024 133.032 43.8567C133.36 45.0762 133.177 46.174 132.483 47.15C131.795 48.1243 130.718 48.8088 129.253 49.2034C127.883 49.5726 126.664 49.5135 125.595 49.026C124.533 48.5368 123.842 47.6982 123.521 46.51L126.247 45.7758C126.385 46.2913 126.691 46.6608 127.162 46.8844C127.64 47.1063 128.162 47.141 128.728 46.9886C129.375 46.8141 129.835 46.508 130.108 46.0704C130.386 45.6247 130.449 45.119 130.296 44.5532C129.927 43.1828 128.988 42.7008 127.48 43.1073L126.037 43.496L125.463 41.365Z" fill="white"/>
<path d="M194.892 44.6678L196.451 45.0776L195.872 47.2782L194.314 46.8683L193.531 49.8433L190.802 49.1254L191.584 46.1504L185.946 44.6674L186.275 42.9163L194.39 35.3669L197.148 36.0922L194.892 44.6678ZM189.122 43.15L192.163 43.9499L193.44 39.0954L193.178 39.3599L189.122 43.15Z" fill="white"/>
<path d="M244.828 71.7727L250.633 67.3912L256.121 73.1694L254.414 74.7901L250.52 70.6901L248.062 72.5401C248.783 72.7797 249.404 73.1734 249.924 73.721C250.857 74.7029 251.283 75.7616 251.203 76.897C251.123 78.0324 250.535 79.1201 249.44 80.1602C248.775 80.7924 248.043 81.2179 247.245 81.4367C246.457 81.6559 245.667 81.6424 244.877 81.3963C244.091 81.1458 243.36 80.6641 242.683 79.9513C242.091 79.3281 241.667 78.631 241.411 77.86C241.159 77.0844 241.114 76.3234 241.276 75.577C241.443 74.8352 241.81 74.177 242.377 73.6022L244.3 75.6274C243.911 76.0779 243.717 76.5449 243.719 77.0284C243.729 77.5123 243.932 77.9619 244.326 78.3773C244.766 78.8399 245.269 79.0395 245.837 78.9758C246.41 78.9077 247.001 78.5845 247.61 78.0062C248.195 77.4502 248.507 76.8803 248.545 76.2965C248.583 75.7126 248.351 75.1563 247.849 74.6276C247.387 74.1413 246.886 73.8682 246.344 73.8082L245.971 73.7847L244.828 71.7727Z" fill="white"/>
<path d="M286.946 130.499L284.691 131.065L284.625 130.8C284.295 129.567 283.722 128.65 282.907 128.05C282.093 127.455 281.111 127.222 279.962 127.35C280.891 127.895 281.496 128.726 281.777 129.844C282.078 131.044 281.888 132.105 281.207 133.028C280.526 133.951 279.485 134.589 278.083 134.941C277.186 135.166 276.326 135.174 275.501 134.965C274.678 134.762 273.975 134.355 273.392 133.743C272.81 133.137 272.407 132.386 272.181 131.49C271.817 130.037 272.027 128.736 272.812 127.586C273.598 126.441 274.834 125.658 276.52 125.234L277.505 124.987C279.002 124.611 280.392 124.56 281.676 124.835C282.968 125.114 284.059 125.703 284.949 126.6C285.847 127.502 286.474 128.65 286.831 130.044L286.946 130.499ZM279.37 129.563C279.259 129.121 279.041 128.749 278.717 128.448C278.4 128.145 278.03 127.956 277.608 127.881L276.775 128.09C275.859 128.32 275.188 128.68 274.76 129.17C274.339 129.659 274.211 130.228 274.374 130.878C274.521 131.466 274.871 131.881 275.422 132.125C275.982 132.374 276.631 132.406 277.369 132.22C278.121 132.031 278.681 131.696 279.05 131.214C279.419 130.732 279.525 130.181 279.37 129.563Z" fill="white"/>
</svg>
