<svg width="16" height="16" viewBox="0 0 16 16" fill="none" xmlns="http://www.w3.org/2000/svg">
<path d="M11.9158 5.85822H11.1833V4.93691C11.1442 4.14524 10.7941 3.39861 10.2056 2.85181C9.61713 2.30502 8.83536 2 8.02242 2C7.20948 2 6.42772 2.30502 5.83923 2.85181C5.25073 3.39861 4.90064 4.14524 4.86154 4.93691V5.85822H4.129C3.98359 5.85246 3.83847 5.87531 3.70231 5.9254C3.56615 5.97549 3.44172 6.05179 3.33645 6.14976C3.23118 6.24773 3.14721 6.36536 3.08957 6.49565C3.03192 6.62593 3.00176 6.76619 3.0009 6.90808V12.9073C2.99497 13.0487 3.01844 13.1899 3.0699 13.3222C3.12135 13.4546 3.19973 13.5754 3.30032 13.6775C3.40091 13.7796 3.52163 13.8608 3.65523 13.9162C3.78883 13.9716 3.93254 14.0001 4.07772 14H11.9158C12.2034 14 12.4791 13.8886 12.6825 13.6904C12.8858 13.4922 13 13.2233 13 12.943V6.90808C12.9962 6.62956 12.8805 6.36362 12.6778 6.16733C12.4751 5.97104 12.2015 5.86006 11.9158 5.85822ZM6.268 4.93691C6.29663 4.50792 6.4916 4.10563 6.81335 3.81168C7.1351 3.51774 7.55952 3.35417 8.00045 3.35417C8.44138 3.35417 8.8658 3.51774 9.18754 3.81168C9.50929 4.10563 9.70427 4.50792 9.73289 4.93691V5.85822H6.268V4.93691ZM8.58281 11.1861V12.7216C8.58094 12.7525 8.567 12.7816 8.54385 12.8029C8.52069 12.8241 8.49008 12.8359 8.45828 12.8359H7.72575C7.69595 12.834 7.66799 12.8212 7.64757 12.8C7.62715 12.7787 7.61581 12.7507 7.61587 12.7216V11.1861C7.35476 11.0911 7.12979 10.9204 6.9713 10.6969C6.8128 10.4734 6.72841 10.208 6.7295 9.93625C6.72719 9.68957 6.79427 9.44698 6.92344 9.23486C7.05262 9.02273 7.23894 8.84917 7.46218 8.73304C7.68542 8.61691 7.93704 8.56265 8.18969 8.57615C8.44234 8.58964 8.68637 8.67039 8.89525 8.80961C9.10414 8.94883 9.2699 9.14119 9.37453 9.36581C9.47915 9.59043 9.51864 9.83871 9.4887 10.0837C9.45876 10.3286 9.36054 10.5609 9.2047 10.7553C9.04887 10.9496 8.84138 11.0986 8.60479 11.1861" fill="#1E1E2A"/>
</svg>
