<?xml version="1.0" encoding="utf-8"?>
<!-- Generator: Adobe Illustrator 19.0.0, SVG Export Plug-In . SVG Version: 6.00 Build 0)  -->
<svg version="1.1" id="Layer_1" xmlns="http://www.w3.org/2000/svg" xmlns:xlink="http://www.w3.org/1999/xlink" x="0px" y="0px"
	 viewBox="0 0 50 50" style="enable-background:new 0 0 50 50;" xml:space="preserve">
<style type="text/css">
	.st0{fill:#FFFFFF;}
</style>
<g id="XMLID_1468_">
	<path id="XMLID_1485_" class="st0" d="M14.6,4C21.3,4,28,4,34.7,4c0.1,0,0.3,0.1,0.4,0.1c1.1,0.1,2.2,0.4,3.3,0.9
		c4.5,2.1,6.8,5.6,6.9,10.6c0.1,6.1,0,12.2,0,18.3c0,1.6-0.3,3.1-0.9,4.6c-2.1,4.4-5.6,6.8-10.5,6.9c-6.1,0.1-12.3,0-18.4,0
		c-2.4,0-4.6-0.6-6.5-2C5.7,40.9,4,37.7,4,33.7c0-6,0-12.1,0-18.1c0-0.8,0-1.6,0.2-2.3c1-4.7,3.9-7.7,8.5-9C13.3,4.2,14,4.1,14.6,4z
		 M41.6,24.7c0-3,0-6,0-9c0-0.9-0.1-1.9-0.4-2.7c-1.1-3.3-4-5.3-7.5-5.3c-6,0-12.1,0-18.1,0c-0.9,0-1.8,0.1-2.7,0.4
		c-3.3,1.1-5.3,4-5.3,7.5c0,6,0,12.1,0,18.1c0,0.9,0.1,1.8,0.4,2.7c1.1,3.3,3.9,5.3,7.5,5.3c6.1,0,12.1,0,18.2,0
		c2.7,0,4.9-1.1,6.5-3.3c1-1.4,1.4-3,1.4-4.7C41.6,30.6,41.6,27.7,41.6,24.7z"/>
	<path id="XMLID_1482_" class="st0" d="M24.6,35.3c-5.9,0-10.7-4.8-10.6-10.7C14,18.7,18.9,14,24.7,14c5.9,0,10.6,4.8,10.6,10.7
		C35.3,30.5,30.5,35.3,24.6,35.3z M24.6,17.7c-3.8,0-7,3.1-7,7s3.1,7,7,7s7-3.1,7-7C31.6,20.8,28.5,17.7,24.6,17.7z"/>
	<path id="XMLID_1481_" class="st0" d="M35.7,10.9c1.5,0,2.7,1.2,2.7,2.7c0,1.5-1.2,2.7-2.7,2.7c-1.5,0-2.7-1.2-2.7-2.7
		S34.2,10.9,35.7,10.9z"/>
</g>
<g id="XMLID_6_">
</g>
</svg>
